<?xml version="1.0" encoding="utf-8"?>
<!-- Generator: Adobe Illustrator 17.1.0, SVG Export Plug-In . SVG Version: 6.00 Build 0)  -->
<!DOCTYPE svg PUBLIC "-//W3C//DTD SVG 1.1//EN" "http://www.w3.org/Graphics/SVG/1.1/DTD/svg11.dtd">
<svg version="1.1" id="Layer_1" xmlns="http://www.w3.org/2000/svg" xmlns:xlink="http://www.w3.org/1999/xlink" x="0px" y="0px"
	 viewBox="0 0 190 100" enable-background="new 0 0 190 100" xml:space="preserve">
<g>
	<g>
		<g>
			<defs>
				<rect id="SVGID_1_" x="37.9" y="40.5" width="114.2" height="19"/>
			</defs>
			<clipPath id="SVGID_2_">
				<use xlink:href="#SVGID_1_"  overflow="visible"/>
			</clipPath>
			<path clip-path="url(#SVGID_2_)" fill="#212121" d="M47.1,57.9c-4,0-7.4-3.7-7.4-7.8c0-4.1,3.3-7.9,7.4-7.9
				c2.7,0,4.6,1.3,6.1,3.4h2c-0.6-1.1-1.2-2.1-2.2-2.9c-1.6-1.4-3.8-2.2-5.9-2.2c-5.1,0-9.2,4.3-9.2,9.5c0,5.2,4.2,9.5,9.2,9.5
				c2.1,0,4.1-0.8,5.7-2.1c1-0.8,1.7-1.9,2.4-3.1h-2C51.7,56.4,49.8,57.9,47.1,57.9"/>
		</g>
		<g>
			<defs>
				<rect id="SVGID_3_" x="37.9" y="40.5" width="114.2" height="19"/>
			</defs>
			<clipPath id="SVGID_4_">
				<use xlink:href="#SVGID_3_"  overflow="visible"/>
			</clipPath>
			<path clip-path="url(#SVGID_4_)" fill="#212121" d="M62.3,57.6c-2.8,0-5.1-2.5-5.1-5.4c0-2.9,2.2-5.4,5.1-5.4
				c2.8,0,5.1,2.6,5.1,5.4C67.4,55.1,65.2,57.6,62.3,57.6 M67.4,47.9c-1.2-1.6-2.9-2.7-5-2.7c-3.7,0-6.8,3.1-6.8,6.9
				c0,3.8,3.1,7,6.8,7c2.2,0,3.7-0.9,5-2.6v2.3H69V45.6h-1.6V47.9z"/>
		</g>
	</g>
	<rect x="70.9" y="40.9" fill="#212121" width="1.7" height="18"/>
	<polygon fill="#212121" points="83.6,45.6 79.2,56.7 74.8,45.6 73.1,45.6 78.4,58.8 80.1,58.8 85.3,45.6 	"/>
	<rect x="86" y="45.6" fill="#212121" width="1.7" height="13.3"/>
	<rect x="86" y="40.9" fill="#212121" width="1.7" height="3"/>
	<g>
		<g>
			<defs>
				<rect id="SVGID_5_" x="37.9" y="40.5" width="114.2" height="19"/>
			</defs>
			<clipPath id="SVGID_6_">
				<use xlink:href="#SVGID_5_"  overflow="visible"/>
			</clipPath>
			<path clip-path="url(#SVGID_6_)" fill="#212121" d="M95.2,45.2c-1.6,0-2.8,0.9-3.9,2.1v-1.7h-1.6v13.3h1.7v-8.1
				c0-2.1,1.7-4,3.8-4c2.6,0,3.9,2.3,3.9,4.8v7.3h1.6v-7.3C100.7,48.1,98.8,45.2,95.2,45.2"/>
		</g>
	</g>
	<polygon fill="#212121" points="116.8,40.9 108.9,51.2 108.9,40.9 107.2,40.9 107.2,58.8 108.9,58.8 108.9,53.9 111.1,51 
		116.8,58.8 119,58.8 112.2,49.6 119,40.9 	"/>
	<rect x="119.6" y="40.9" fill="#212121" width="1.7" height="18"/>
	<g>
		<g>
			<defs>
				<rect id="SVGID_7_" x="37.9" y="40.5" width="114.2" height="19"/>
			</defs>
			<clipPath id="SVGID_8_">
				<use xlink:href="#SVGID_7_"  overflow="visible"/>
			</clipPath>
			<path clip-path="url(#SVGID_8_)" fill="#212121" d="M124.3,51.3c0.5-2.5,2.4-4.5,5-4.5c2.2,0,4.5,1.4,5,4.5H124.3z M135.2,48.9
				c-1.2-2.3-3.5-3.7-6-3.7c-3.7,0-6.8,3.2-6.8,7c0,3.8,3.1,6.9,6.8,6.9c1.8,0,3.5-0.7,4.8-2c0.8-0.8,1.2-1.7,1.6-2.7h-1.8
				c-0.9,1.8-2.5,3.1-4.6,3.1c-1.3,0-2.5-0.5-3.5-1.4c-1-0.9-1.4-2-1.6-3.4h11.9C136.1,51.4,135.9,50.1,135.2,48.9"/>
		</g>
	</g>
	<rect x="137.3" y="45.6" fill="#212121" width="1.7" height="13.3"/>
	<rect x="137.3" y="40.9" fill="#212121" width="1.7" height="3"/>
	<g>
		<g>
			<defs>
				<rect id="SVGID_9_" x="37.9" y="40.5" width="114.2" height="19"/>
			</defs>
			<clipPath id="SVGID_10_">
				<use xlink:href="#SVGID_9_"  overflow="visible"/>
			</clipPath>
			<path clip-path="url(#SVGID_10_)" fill="#212121" d="M146.5,45.2c-1.7,0-2.8,0.9-3.9,2.1v-1.7H141v13.3h1.7v-8.1
				c0-2.2,1.7-4,3.8-4c2.6,0,4,2.3,4,4.8v7.3h1.6v-7.3C152.1,48.1,150.1,45.2,146.5,45.2"/>
		</g>
	</g>
</g>
</svg>
