<?xml version="1.0" encoding="utf-8"?>
<!-- Generator: Adobe Illustrator 17.1.0, SVG Export Plug-In . SVG Version: 6.00 Build 0)  -->
<!DOCTYPE svg PUBLIC "-//W3C//DTD SVG 1.1//EN" "http://www.w3.org/Graphics/SVG/1.1/DTD/svg11.dtd">
<svg version="1.1" id="Layer_1" xmlns="http://www.w3.org/2000/svg" xmlns:xlink="http://www.w3.org/1999/xlink" x="0px" y="0px"
	 viewBox="0 0 190 100" enable-background="new 0 0 190 100" xml:space="preserve">
<g>
	<polygon fill-rule="evenodd" clip-rule="evenodd" points="111.4,62.8 114.6,62.8 114.6,42.2 111.4,42.2 111.4,62.8 	"/>
	<path fill-rule="evenodd" clip-rule="evenodd" d="M48.2,51c0.1-4.6,8.9-9.4,14.6-4.5c1,0.8,2.9,2.9,2.9,4.5H48.2L48.2,51z M45,53
		c0,9.2,14.5,14.8,22,5.4c0.3-0.3,1.2-1.8,1.2-2.3c-5.4,0-1.2-0.6-6.2,3.1c-4.5,3.3-13.9,0.4-13.9-5.7h20.8C68.9,37.6,45,38.3,45,53
		L45,53z"/>
	<path fill-rule="evenodd" clip-rule="evenodd" d="M76.8,46.5c0.1-0.9,1-2,3.1-2c3.8,0,3.3,2.9,3.7,2.9h3c0-7.1-13-7.9-13,0.5
		c0,6.6,10.4,4,10.4,9.2c0,4.9-8.2,4.7-8.2-0.3h-3.1c0,1.7,0.5,3.3,1.5,4.5c2.9,3.4,10.6,2.7,12.4-1.4c1-2.2,0.7-5-1-6.7
		C82.3,49.7,76,51.7,76.8,46.5L76.8,46.5z"/>
	<path d="M143.5,59.4c0.2,0,0.5,0.1,0.7,0.2c0.2,0.1,0.4,0.3,0.6,0.5c0.1,0.2,0.2,0.5,0.2,0.7c0,0.3-0.1,0.5-0.2,0.7
		c-0.1,0.2-0.3,0.4-0.5,0.5c-0.2,0.1-0.5,0.2-0.7,0.2c-0.3,0-0.5-0.1-0.7-0.2c-0.2-0.1-0.4-0.3-0.5-0.5c-0.1-0.2-0.2-0.5-0.2-0.7
		c0-0.3,0.1-0.5,0.2-0.7c0.1-0.2,0.3-0.4,0.6-0.5C143,59.4,143.3,59.4,143.5,59.4L143.5,59.4z M143.5,59.6c-0.2,0-0.4,0.1-0.6,0.2
		c-0.2,0.1-0.3,0.3-0.5,0.5c-0.1,0.2-0.2,0.4-0.2,0.6c0,0.2,0.1,0.4,0.2,0.6c0.1,0.2,0.3,0.3,0.5,0.5c0.2,0.1,0.4,0.2,0.6,0.2
		c0.2,0,0.4-0.1,0.6-0.2c0.2-0.1,0.3-0.3,0.5-0.5c0.1-0.2,0.2-0.4,0.2-0.6c0-0.2-0.1-0.4-0.2-0.6c-0.1-0.2-0.3-0.3-0.5-0.5
		C143.9,59.7,143.7,59.6,143.5,59.6L143.5,59.6z M142.9,61.7v-1.6h0.5c0.2,0,0.3,0,0.4,0c0.1,0,0.1,0.1,0.2,0.2
		c0,0.1,0.1,0.2,0.1,0.2c0,0.1,0,0.2-0.1,0.3c-0.1,0.1-0.2,0.1-0.3,0.1c0.1,0,0.1,0.1,0.1,0.1c0.1,0.1,0.1,0.2,0.2,0.3l0.2,0.3h-0.3
		l-0.1-0.2c-0.1-0.2-0.2-0.3-0.3-0.4c0,0-0.1-0.1-0.2-0.1h-0.1v0.7H142.9L142.9,61.7z M143.1,60.8h0.3c0.1,0,0.2,0,0.3-0.1
		c0.1,0,0.1-0.1,0.1-0.2c0,0,0-0.1,0-0.1c0,0-0.1-0.1-0.1-0.1c0,0-0.1,0-0.3,0h-0.3V60.8L143.1,60.8z"/>
	<path fill-rule="evenodd" clip-rule="evenodd" d="M95.6,46.5c0.1-0.9,1-2,3.1-2c3.8,0,3.3,2.9,3.7,2.9h3c0-7.1-13-7.9-13,0.5
		c0,6.6,10.4,4,10.4,9.2c0,4.9-8.2,4.7-8.2-0.3h-3.1c0,1.7,0.5,3.3,1.5,4.5c2.9,3.4,10.6,2.7,12.4-1.4c1-2.2,0.7-5-1-6.7
		C101.1,49.7,94.8,51.7,95.6,46.5L95.6,46.5z"/>
	<path fill-rule="evenodd" clip-rule="evenodd" d="M113,36.7c1.1,0,2.1,0.8,2.1,1.8c0,1-0.9,1.8-2.1,1.8c-1.1,0-2.1-0.8-2.1-1.8
		C110.9,37.5,111.8,36.7,113,36.7L113,36.7z"/>
	<path fill-rule="evenodd" clip-rule="evenodd" d="M122.8,51c0.1-4.6,8.9-9.4,14.6-4.5c1,0.8,2.9,2.9,2.9,4.5H122.8L122.8,51z
		 M119.6,53c0,9.2,14.5,14.8,22,5.4c0.3-0.3,1.2-1.8,1.2-2.3c-5.4,0-1.2-0.6-6.2,3.1c-4.5,3.3-13.9,0.4-13.9-5.7h20.8
		C143.5,37.6,119.6,38.3,119.6,53L119.6,53z"/>
</g>
</svg>
