<?xml version="1.0" encoding="utf-8"?>
<!-- Generator: Adobe Illustrator 17.1.0, SVG Export Plug-In . SVG Version: 6.00 Build 0)  -->
<!DOCTYPE svg PUBLIC "-//W3C//DTD SVG 1.1//EN" "http://www.w3.org/Graphics/SVG/1.1/DTD/svg11.dtd">
<svg version="1.1" id="Layer_1" xmlns="http://www.w3.org/2000/svg" xmlns:xlink="http://www.w3.org/1999/xlink" x="0px" y="0px"
	 viewBox="0 0 190 100" enable-background="new 0 0 190 100" xml:space="preserve">
<g>
	<g>
		<defs>
			<rect id="SVGID_1_" x="32.5" y="35.7" width="125" height="28.7"/>
		</defs>
		<clipPath id="SVGID_2_">
			<use xlink:href="#SVGID_1_"  overflow="visible"/>
		</clipPath>
		<path clip-path="url(#SVGID_2_)" d="M129,50.8c0,6.3-1.6,9.5-4.8,9.5h-0.5V39.7h0.5c3.2,0,4.8,3.2,4.8,9.5V50.8z M123.6,35.7h-4.5
			v28.6h4.5c6.5,0,10-4.7,10-13.6v-1.5C133.6,40.4,130.1,35.7,123.6,35.7 M148.3,53.7l1.7-13.5l1.7,13.5H148.3z M153.1,35.7h-6.1
			l-4.4,28.6h4.1l0.8-6l0-0.2h5.2l0,0.2l0.8,6h4.1L153.1,35.7z M89.9,53.7l1.7-13.5l1.7,13.5H89.9z M88.5,35.7l-4.4,28.6h4.1l0.8-6
			l0-0.2h5.2l0,0.2l0.8,6h4.1l-4.4-28.6H88.5z M78.3,35.7h-4.6v28.6h9.7v-4.2h-5.1L78.3,35.7L78.3,35.7z M110.5,52.5l-5.4-16.8h-4.3
			v28.6h4.4V47.8l5.6,16.6h4.1V35.7h-4.4L110.5,52.5L110.5,52.5z M65.1,52.5l-5.4-16.8h-4.3v28.6h4.4V47.8l5.6,16.6h4.1V35.7h-4.4
			V52.5z M136.1,64.3h4.6V35.7h-4.6V64.3z M46.7,64.3h4.6V35.7h-4.6V64.3z M32.5,64.3h4.6V51.6h5.3v-4.2h-5.3v-7.5h7.1v-4.2H32.5
			V64.3z"/>
	</g>
	<g>
		<defs>
			<rect id="SVGID_3_" x="32.5" y="35.7" width="125" height="28.7"/>
		</defs>
		<clipPath id="SVGID_4_">
			<use xlink:href="#SVGID_3_"  overflow="visible"/>
		</clipPath>
		<path clip-path="url(#SVGID_4_)" d="M155.7,37.2l0.2,0c0.2,0,0.4-0.1,0.4-0.3c0-0.2-0.1-0.3-0.4-0.3c-0.1,0-0.2,0-0.2,0V37.2z
			 M155.7,38.1l-0.3,0l0-1.7c0.1,0,0.3,0,0.5,0c0.3,0,0.4,0.1,0.5,0.1c0.1,0.1,0.2,0.2,0.2,0.4c0,0.2-0.2,0.4-0.3,0.4l0,0
			c0.2,0,0.3,0.2,0.3,0.4c0,0.3,0.1,0.4,0.1,0.4h-0.3c0-0.1-0.1-0.2-0.1-0.4c0-0.2-0.2-0.3-0.4-0.3l-0.2,0L155.7,38.1z M155.9,35.9
			c-0.7,0-1.3,0.6-1.3,1.3c0,0.7,0.6,1.3,1.3,1.3c0.7,0,1.3-0.6,1.3-1.3C157.2,36.5,156.7,35.9,155.9,35.9L155.9,35.9z M156,35.7
			c0.9,0,1.5,0.7,1.5,1.6c0,0.9-0.7,1.6-1.5,1.6c-0.9,0-1.6-0.7-1.6-1.6C154.4,36.4,155.1,35.7,156,35.7L156,35.7z"/>
	</g>
</g>
</svg>
