<?xml version="1.0" encoding="utf-8"?>
<!-- Generator: Adobe Illustrator 17.1.0, SVG Export Plug-In . SVG Version: 6.00 Build 0)  -->
<!DOCTYPE svg PUBLIC "-//W3C//DTD SVG 1.1//EN" "http://www.w3.org/Graphics/SVG/1.1/DTD/svg11.dtd">
<svg version="1.1" id="Layer_1" xmlns="http://www.w3.org/2000/svg" xmlns:xlink="http://www.w3.org/1999/xlink" x="0px" y="0px"
	 viewBox="0 0 190 100" enable-background="new 0 0 190 100" xml:space="preserve">
<g>
	<polygon fill="#212121" points="40.7,42.6 40.7,47.6 38.1,47.6 38.1,42.6 32.5,42.6 32.5,57.4 38.1,57.4 38.1,51.9 40.7,51.9 
		40.7,57.4 46.4,57.4 46.4,42.6 	"/>
	<polygon fill="#212121" points="56.7,42.6 56.7,57.4 68.1,57.4 68.1,53.5 62.4,53.5 62.4,51.8 67.5,51.8 67.5,48 62.4,48 
		62.4,46.4 67.9,46.4 67.9,42.6 	"/>
	<path fill="#212121" d="M84.6,45.6l1.3,5.8h-2.7L84.6,45.6z M81.1,42.6l-4.9,14.8h5.7l0.5-2.4h4.3l0.5,2.4h6.2l-4.7-14.8
		C88.7,42.6,81.1,42.6,81.1,42.6z"/>
	<g>
		<g>
			<g>
				<defs>
					<rect id="SVGID_1_" x="32.5" y="42.4" width="125" height="15.2"/>
				</defs>
				<clipPath id="SVGID_2_">
					<use xlink:href="#SVGID_1_"  overflow="visible"/>
				</clipPath>
				<path clip-path="url(#SVGID_2_)" fill="#212121" d="M109.2,42.6h-7.6v14.7h5.6V52c0.2,0,0.4,0,0.5,0c1.3,0,1.5,0.6,1.8,2.2
					l0.1,1.1c0.1,0.7,0.2,1.3,0.4,2h5.7c-0.2-1.1-0.4-2-0.5-2.6l-0.2-1.6c-0.3-2.1-0.7-3-2.8-3.4c1.9-0.5,2.9-1.7,2.9-3.4
					C115.2,43.4,113.3,42.6,109.2,42.6 M107.6,48.7c-0.1,0-0.3,0-0.4,0v-2.8c0.2,0,0.5,0,0.6,0c1.3,0,1.8,0.4,1.8,1.3
					C109.6,48.1,108.9,48.7,107.6,48.7"/>
			</g>
		</g>
		<g>
			<g>
				<defs>
					<rect id="SVGID_3_" x="32.5" y="42.4" width="125" height="15.2"/>
				</defs>
				<clipPath id="SVGID_4_">
					<use xlink:href="#SVGID_3_"  overflow="visible"/>
				</clipPath>
				<path clip-path="url(#SVGID_4_)" fill="#212121" d="M130.8,42.4c-4.3,0-6.7,1.7-6.7,4.6c0,2.1,1.1,3.2,3.5,4
					c1.8,0.6,3.1,0.8,3.9,1.1c0.4,0.2,0.6,0.5,0.6,1c0,0.6-0.5,1.1-1.4,1.1c-1,0-1.4-0.5-1.4-1.5v-0.1h-5.4c0,0.2,0,0.4,0,0.5
					c0,2.8,2.3,4.4,6.7,4.4c4.3,0,6.8-2,6.8-5.2c0-2.7-1.7-3.6-5.1-4.5c-1.9-0.5-2.9-0.5-2.9-1.5c0-0.6,0.5-1,1.2-1
					c0.8,0,1.2,0.4,1.3,1.3h4.9v-0.3C136.9,43.8,134.8,42.4,130.8,42.4"/>
			</g>
		</g>
	</g>
	<polygon fill="#212121" points="144.5,42.6 144.5,46.5 148.2,46.5 148.2,57.4 153.9,57.4 153.9,46.5 157.5,46.5 157.5,42.6 	"/>
</g>
</svg>
