<?xml version="1.0" encoding="utf-8"?>
<!-- Generator: Adobe Illustrator 17.1.0, SVG Export Plug-In . SVG Version: 6.00 Build 0)  -->
<!DOCTYPE svg PUBLIC "-//W3C//DTD SVG 1.1//EN" "http://www.w3.org/Graphics/SVG/1.1/DTD/svg11.dtd">
<svg version="1.1" id="Layer_1" xmlns="http://www.w3.org/2000/svg" xmlns:xlink="http://www.w3.org/1999/xlink" x="0px" y="0px"
	 viewBox="0 0 190 100" enable-background="new 0 0 190 100" xml:space="preserve">
<g>
	<path fill="#231F20" d="M115.7,24.8c0-0.1-0.3-0.3-0.4-0.4s0,0,0-0.1c0-0.1,0-0.1,0-0.1c-0.1,0-0.2,0-0.4-0.2s-0.1,0-0.1,0
		c-0.1,0-0.2,0-0.2,0c-0.1,0-0.1,0-0.1,0c0-0.1,0-0.1,0-0.1c0,0-0.1,0-0.1,0s-0.1,0-0.2,0c-0.1,0-0.1,0-0.2-0.1c0,0-0.2-0.1-0.3-0.1
		c-0.1,0-0.3-0.1-0.5-0.2c-0.1-0.1-0.3-0.1-0.3-0.1c-0.1,0-0.2,0-0.2,0c0,0-0.1,0-0.1-0.1c0,0-0.1,0-0.1,0c0,0-0.1,0-0.1,0
		s-0.1,0-0.1,0c0,0-0.1,0-0.1,0c0,0,0,0-0.1-0.1c0,0-0.1,0-0.1,0c0,0-0.1,0-0.1,0c0,0,0,0-0.1,0s-0.1,0-0.1,0
		c-0.2-0.2-0.2-0.2,0,0.1c0,0,0,0,0,0.1s0,0.1,0,0.1c0.1,0,0.1,0.1,0.1,0.1c0,0.1,0,0.2,0,0.3c0,0.1,0.1,0.5,0.1,0.7c0,0,0,0,0,0.1
		c0,0.1,0,0.1,0,0.1c0,0.1,0.1,0.1,0,0.2s-0.1,0.1-0.1,0.1c0,0,0,0.1,0,0.1s-0.1,0-0.1,0s-0.1,0-0.1,0c0,0-0.1-0.1-0.1-0.1
		c0,0-0.1-0.1-0.1-0.1c0,0-0.1,0-0.1,0c0,0,0,0,0,0s0,0-0.1,0s0-0.1,0-0.1c0-0.1,0-0.1,0-0.1c0-0.1,0-0.1-0.1-0.1c0,0-0.1,0-0.1,0
		c0,0-0.1-0.1-0.1-0.1c0,0,0,0,0-0.1s0-0.1,0-0.1c-0.1-0.1-0.2-0.1-0.2-0.1c0,0,0,0.1,0,0.2c0,0.1,0.1,0.2,0.1,0.3c0,0,0,0,0,0.1
		c0,0.1,0,0.1,0,0.1s0,0.1,0,0.1c-0.1,0-0.1,0.1,0,0.1c0.1,0,0.2,0.1,0.2,0.1c0,0,0.1,0.2,0.1,0.3c0,0,0,0,0,0.1c0,0.1,0,0.1,0,0.1
		c0.1,0.2,0.1,0.4,0.1,0.4c0,0.1,0,0.2,0,0.2c0,0.1-0.1,0.1-0.1,0.1c0,0-0.1,0-0.1,0.1s-0.1,0-0.1,0c0,0,0,0-0.1,0c0,0,0,0,0,0
		c0-0.1-0.1-0.1-0.1-0.1c0,0,0,0.2,0.1,0.4c0,0.2,0.1,0.4,0.1,0.4c0,0.1,0.1,0.1,0.1,0.2c0,0,0,0.1,0,0.1s0,0.1,0,0.1
		c0,0,0,0.1,0.1,0.2c0,0.1,0.1,0.2,0.1,0.2c0,0.1,0.1,0.2,0.1,0.3c0.1,0.1,0.2,0.2,0.3,0.4c0.1,0.1,0.3,0.2,0.4,0.2c0,0,0,0,0.1,0
		c0.1,0,0.1,0,0.1,0c0.1,0,0.2,0,0.2,0c0,0,0.1,0,0.2-0.1c0.1,0,0.2-0.1,0.2-0.1c0,0,0.1-0.1,0.2-0.1c0.1,0,0.7-0.4,1.3-0.8
		c0,0,0,0,0.1,0c0.1,0,0.1-0.2,0.2-0.2s0-0.1,0-0.1c0.1-0.1,0.1-0.2,0.1-0.2s0-0.1,0.1-0.2c0-0.1,0.1-0.1,0.1-0.2
		c0,0,0.1-0.1,0.1-0.2c0,0,0,0,0-0.1c0-0.1,0.1-0.1,0.1-0.2c0-0.1,0-0.1,0-0.1c0,0,0.1-0.2,0.2-0.3c0-0.1,0.1-0.2,0.1-0.3
		s0-0.1,0-0.1c0,0,0.1-0.1,0.1-0.1c0,0,0.1-0.1,0.1-0.2c0-0.1,0.1-0.2,0.1-0.3c0,0,0,0,0-0.1c0-0.1,0-0.2-0.1-0.3
		C115.7,25,115.7,24.9,115.7,24.8z M110.8,26.5c0,0,0,0.1,0,0.1c0,0.1,0.1,0.1,0.1,0.1c0,0,0,0,0-0.1
		C110.8,26.6,110.8,26.5,110.8,26.5z M76.2,40.9C76.2,40.9,76.2,40.9,76.2,40.9C76.1,40.9,76.1,40.9,76.2,40.9z M99.1,38
		c0,0-0.1,0-0.2-0.1c-0.1,0-0.3-0.1-0.4-0.2s-0.3-0.1-0.5-0.2c-0.1,0-0.3-0.1-0.3-0.1c0,0-0.3,0-0.6,0c-0.3,0-0.7,0.1-0.9,0.2
		c-0.2,0.1-0.4,0.1-0.5,0.2c-0.1,0-0.1,0.1-0.1,0.1c0,0-0.1,0.1-0.2,0.2c-0.1,0-0.2,0.1-0.3,0.2s-0.3,0.2-0.4,0.2
		c-0.1,0.1-0.3,0.2-0.5,0.2s-0.6,0.2-0.9,0.3c-0.4,0.1-0.8,0.2-1,0.2c-0.2,0-0.5,0-0.7,0.1c0,0,0,0-0.1,0c-0.1,0-0.1,0-0.1,0
		c-0.4,0-0.7,0-0.8,0c-0.1,0-0.2-0.1-0.3-0.1c-0.1-0.1-0.2-0.2-0.2-0.2c0-0.1,0-0.1-0.1-0.2c0,0,0-0.1,0-0.2c0-0.1,0-0.4,0-0.5
		c0,0,0,0,0-0.1c0-0.1,0-0.1,0-0.1c0-0.2,0-0.6,0-0.8c0-0.2,0-0.6,0-1c0-0.3-0.3-0.8-0.7-1.1c-0.4-0.3-0.7-0.6-0.8-0.6
		c-0.1,0-0.3-0.1-0.5-0.2c-0.2-0.1-0.4-0.1-0.6-0.2S87.2,34,87,34.1c-0.1,0.1-0.4,0.3-0.6,0.4c0,0,0,0-0.1,0.1
		c-0.1,0.1-0.1,0.1-0.1,0.1c0,0.1-0.2,0.2-0.3,0.3c0,0,0,0-0.2,0.1c-0.2,0.1-0.2,0.1-0.2,0.1c-0.1,0.2-0.2,0.4-0.4,0.5
		c0,0,0,0,0,0.1c0,0.1-0.1,0.3-0.1,0.4c0,0.1,0,0.1,0,0.1c0,0.2,0.1,0.4,0.2,0.5c0,0,0,0,0,0.1s0.1,0.3,0.1,0.4
		c0.1,0.1,0,0.3,0.1,0.4c0.1,0.2,0.1,0.2,0.1,0.2c-0.1,0.2-0.2,0.5-0.3,0.7c0,0,0,0,0,0.1c0,0.1,0,0.1,0,0.1
		c-0.2,0.4-0.3,0.8-0.3,0.8c0,0.1,0,0.2,0,0.3c0,0.1-0.1,0.2-0.1,0.2c0,0,0,0,0,0.2c0,0.2-0.1,0.6-0.2,0.7s0,0.1,0,0.1
		c-0.1,0.2-0.1,0.4-0.2,0.5c0,0.1-0.1,0.3-0.1,0.5c0,0.1-0.1,0.3-0.1,0.4c0,0.1,0,0.3-0.1,0.6c0,0,0,0,0,0.2c0,0.2,0,0.2,0,0.2
		c-0.2,0.7-0.4,1.4-0.5,1.7c-0.1,0.3-0.2,0.5-0.2,0.6c0,0.1-0.1,0.2-0.2,0.3c-0.1,0.1-0.2,0.3-0.3,0.4c0,0,0,0,0,0.1s0,0.1,0,0.1
		c-0.1,0.3-0.3,0.6-0.4,0.8c-0.1,0.2-0.4,0.6-0.6,0.9c-0.2,0.3-0.4,0.6-0.5,0.7s-0.2,0.3-0.3,0.4c-0.1,0.1-0.3,0.3-0.4,0.4
		s-0.4,0.3-0.6,0.4c-0.2,0.1-0.5,0.3-0.6,0.4s-0.7,0.3-1.1,0.5c0,0,0,0-0.1,0.1c-0.1,0.1-0.1,0.1-0.1,0.1c-0.5,0.1-1.2,0.2-1.5,0.1
		c0,0,0,0-0.1,0.1c-0.1,0.1-0.1,0.1-0.1,0.1c-0.3,0-0.6-0.1-0.8-0.1c-0.1-0.1-0.3-0.1-0.5-0.2s-0.3-0.1-0.4-0.1
		c-0.1,0-0.2-0.1-0.3-0.2c-0.1,0-0.1-0.1-0.1-0.2s-0.1-0.2-0.1-0.2c-0.1-0.1-0.2-0.2-0.3-0.4c0,0,0,0-0.1-0.1s-0.3-0.5-0.4-0.6
		c0-0.1,0-0.1,0-0.1c0-0.2-0.1-0.4-0.1-0.6c0-0.1,0.1-0.3,0.1-0.4c0-0.1,0.1-0.2,0.2-0.2c0,0,0.2-0.1,0.3-0.2
		c0.1-0.1,0.2-0.2,0.3-0.3s0.3-0.2,0.4-0.3c0.1-0.1,0.4-0.2,0.5-0.4s0.3-0.3,0.5-0.4c0.1-0.1,0.3-0.2,0.4-0.4
		c0.1-0.1,0.2-0.3,0.3-0.3c0,0,0.2-0.2,0.3-0.3c0.1-0.1,0.3-0.3,0.4-0.4s0.2-0.3,0.3-0.4c0.1-0.1,0.1-0.2,0.2-0.3
		c0-0.1,0.1-0.2,0.2-0.3c0,0,0,0,0-0.1c0-0.1,0-0.1,0-0.1c0.1-0.2,0.3-0.6,0.5-0.7c0,0,0,0,0-0.1s0-0.1,0-0.1
		c0.2-0.3,0.3-0.5,0.4-0.6c0.1-0.1,0.2-0.3,0.3-0.5c0,0,0,0,0.1-0.1c0.1-0.1,0.1-0.1,0.1-0.1c0.1-0.2,0.2-0.5,0.2-0.6
		c0-0.1,0.1-0.3,0.2-0.4c0,0,0,0,0-0.1c0-0.1,0-0.1,0-0.1c0.1-0.3,0.2-0.6,0.2-0.7c0-0.1,0.1-0.3,0.1-0.4c0.1-0.1,0.1-0.4,0.2-0.5
		c0-0.1,0-0.3,0-0.5s0.1-0.4,0.1-0.5c0.1-0.2,0.1-0.5,0.1-0.8c0,0,0,0,0-0.1c0-0.1,0-0.1,0-0.1c0.1-0.3,0.2-0.7,0.2-0.9
		c0-0.2,0-0.5-0.1-0.7c0-0.1-0.2-0.4-0.3-0.5c-0.1-0.1-0.3-0.2-0.4-0.3c-0.1-0.1-0.3-0.1-0.3-0.1c-0.1,0-0.2,0-0.3,0.1
		c-0.1,0.1-0.2,0.2-0.4,0.2c0,0,0,0-0.1,0c-0.1,0-0.4,0.1-0.5,0.2c-0.1,0.1-0.5,0.4-0.6,0.5s-0.1,0-0.1,0c-0.3,0.1-0.6,0.3-0.8,0.4
		c-0.2,0.1-0.4,0.3-0.6,0.4c-0.2,0.1-0.4,0.3-0.6,0.5c-0.2,0.2-0.4,0.4-0.6,0.6c-0.2,0.2-0.4,0.4-0.5,0.5c-0.1,0.1-0.3,0.3-0.4,0.4
		c-0.1,0.1-0.2,0.2-0.3,0.3c0,0,0,0-0.1,0.1c-0.1,0.1-0.1,0.1-0.1,0.1c-0.2,0.3-0.5,0.7-0.6,0.8c-0.1,0.1-0.2,0.3-0.4,0.6
		c0,0,0,0,0,0.1s0,0.1,0,0.1c0,0.1-0.1,0.2-0.1,0.2c0,0-0.1,0.1-0.2,0.2s-0.2,0.3-0.2,0.4c0,0.1-0.1,0.3-0.1,0.3
		c0,0.1,0,0.1-0.1,0.2c0,0.1-0.1,0.1-0.1,0.2c0,0.1-0.2,0.3-0.3,0.6c0,0,0,0,0,0.1c0,0.1,0,0.1,0,0.1c-0.2,0.5-0.3,0.9-0.3,1
		c0,0.1-0.1,0.3-0.1,0.5c0,0.2-0.1,0.5-0.2,0.8c0,0,0,0,0,0.1c0,0.1-0.1,0.6-0.1,0.7c0,0,0,0,0,0c0,0.5-0.1,1-0.1,1s0,0,0,0.1
		c0,0,0,0,0,0s-0.1,0-0.2,0c-0.1,0-0.2,0.1-0.2,0.1c0,0-0.1,0-0.1,0c0,0-0.1,0-0.3,0.1c-0.2,0-0.4,0.1-0.6,0c0,0,0,0-0.1,0
		c-0.1,0-0.1,0-0.1,0c-0.1,0-0.1,0-0.1,0s0,0,0,0c0,0,0,0-0.1,0c0,0,0,0,0,0c0,0.1,0,0.1,0,0.1c-0.1,0.1-0.1,0.1-0.2,0.1s0,0,0,0
		c0,0,0,0,0,0c0,0,0,0-0.1,0c0,0-0.1,0-0.2,0.1c-0.1,0-0.2,0-0.2,0.1c-0.1,0-0.1,0-0.2,0c0,0-0.2,0-0.3,0s-0.2,0-0.3,0.1
		c0,0,0,0-0.1,0c0,0,0,0,0,0c0,0,0,0,0,0c0,0-0.1,0-0.1-0.1c0,0-0.1,0-0.1,0c0,0,0,0.1-0.1,0.1c0,0,0,0-0.1,0c0,0,0,0,0,0
		c0,0-0.1-0.3-0.1-0.7c0,0,0,0-0.1-0.1c-0.1-0.1,0-0.6,0-0.8s0-0.2,0-0.2c0-0.3,0.1-0.7,0.2-0.9c0-0.2,0.1-0.6,0.1-0.7
		s0-0.4-0.1-0.5c0-0.1,0-0.5,0.2-0.8c0,0,0,0,0-0.1s0-0.1,0-0.1c0-0.1-0.1-0.4-0.1-0.7c0,0,0,0,0-0.2c0-0.2,0-0.2,0-0.2
		c0-0.3,0-0.7,0.1-0.8s0.1-0.4,0.1-0.6c0-0.2-0.1-0.4-0.1-0.5c0,0,0,0,0.1-0.1c0.1-0.1,0.1-0.1,0.1-0.1c0-0.1,0.1-0.3,0.1-0.4
		c0-0.2,0-0.5,0-0.7c0,0,0,0,0-0.2c0-0.2-0.1-0.6-0.1-0.7s0-0.1,0-0.1c0-0.2,0.1-0.6,0.1-0.7c0-0.1,0-0.3,0-0.4c0-0.1,0-0.3,0-0.4
		c0-0.1,0-0.2,0-0.2c0,0,0.2-0.2,0.4-0.3c0,0,0,0,0.1,0c0.1,0,0.5-0.1,0.6-0.1c0.1,0,0.7-0.4,0.8-0.5s0.1,0,0.1,0
		c0.3-0.1,0.7-0.4,0.9-0.5c0,0,0,0,0.1,0c0.1,0,0.1,0,0.1,0c0.1-0.1,0.4-0.2,0.5-0.3c0.2-0.1,0.5-0.1,0.8-0.2c0,0,0,0,0.2-0.2
		c0.2-0.2,0.2-0.2,0.4-0.2c0.2,0,0.4-0.2,0.5-0.3c0.1,0,0.1,0,0.1,0c0.4-0.2,1-0.5,1.2-0.6c0.2-0.1,0.6-0.3,0.8-0.4
		c0.2-0.1,0.4-0.2,0.4-0.3c0-0.1,0.1-0.1,0.2-0.1c0.1,0,0.3-0.1,0.4-0.1c0.1-0.1,0.5-0.2,0.8-0.4c0.3-0.1,0.8-0.4,1.1-0.6
		c0.3-0.2,0.6-0.4,0.8-0.4c0.2-0.1,0.3-0.2,0.4-0.2c0,0,0,0,0.1-0.1s0.1-0.1,0.1-0.1c0.1,0,0.3,0.1,0.4,0c0.1,0,0.5-0.2,0.9-0.4
		c0,0,0,0,0.1-0.1c0.1-0.1,0.5-0.2,0.6-0.3c0.1-0.1,0.2,0,0.3,0c0.1,0,0.1,0,0.1,0c0.1-0.1,0.3-0.3,0.4-0.3c0.1,0,0.5-0.2,1-0.4
		c0,0,0,0,0.1,0c0.1,0,0.1,0,0.1,0c0.3-0.1,0.6-0.3,0.6-0.4c0-0.1,0.2-0.1,0.3-0.2c0.1-0.1,0.3-0.1,0.4-0.2c0.1,0,0.2-0.1,0.3-0.2
		c0.1-0.1,0.3-0.2,0.4-0.2c0,0,0,0,0.2,0c0.2,0,0.2,0,0.2,0c0.1-0.1,0.4-0.2,0.5-0.2s0.5-0.3,0.7-0.4c0.2-0.1,0.5-0.3,0.6-0.4
		c0.1-0.1,0.3-0.1,0.3-0.2c0,0,0,0,0.1,0s0.1,0,0.1,0c0.1,0,0.2-0.1,0.2-0.2c0.1-0.1,0.2-0.1,0.3-0.2c0.1,0,0.3-0.1,0.3-0.2
		c0-0.1,0.2-0.2,0.5-0.3c0.2-0.1,0.5-0.2,0.6-0.2c0.1-0.1,0.7-0.3,1.3-0.6c0,0,0,0,0.1-0.1s0.1-0.1,0.1-0.1c0.3-0.2,0.6-0.4,0.7-0.4
		c0,0,0,0,0.2-0.1s0.2-0.1,0.2-0.1c0.1-0.1,0.2-0.2,0.3-0.2c0.1-0.1,0.3-0.1,0.4-0.2c0.1,0,0.3-0.1,0.5-0.2c0.1,0,0.3-0.1,0.3-0.1
		s0.1-0.1,0.2-0.1c0.1,0,0.4-0.2,0.6-0.3c0.3-0.1,0.5-0.3,0.6-0.3c0.1-0.1,0.2-0.1,0.2-0.1c0.1,0,0.2,0,0.2,0c0.1,0,0.1-0.1,0.2-0.1
		c0.1,0,0.3-0.2,0.5-0.2c0.2-0.1,0.5-0.2,0.6-0.2c0.1,0,0.2-0.1,0.3-0.2c0,0,0,0,0.2,0c0.2,0,0.2,0,0.2,0c0-0.1,0-0.3-0.1-0.3
		c0-0.1-0.1-0.1-0.2,0c-0.1,0.1-0.1,0.1-0.2,0c0-0.1-0.1-0.1-0.1,0c0,0-0.1,0.1-0.3,0.1c-0.1,0-0.3,0-0.4,0.1
		c-0.1,0.1-0.2,0.1-0.2,0.2c0,0-0.1,0.1-0.2,0.1c-0.1,0-0.3,0.1-0.4,0.2c-0.2,0.1-0.3,0.1-0.4,0.1c-0.1,0-0.2,0-0.2,0.1
		c0,0,0,0-0.1,0s-0.1,0-0.1,0c-0.1,0.1-0.2,0.2-0.2,0.2c-0.1,0-0.1-0.1-0.2-0.1c0-0.1-0.2,0-0.2,0.1c-0.1,0.1-0.2,0.2-0.3,0.2
		c-0.1,0-0.3,0.1-0.4,0.1c-0.1,0.1-0.4,0.2-0.6,0.3c-0.2,0.1-0.5,0.2-0.7,0.3C92.1,23,91.9,23,91.8,23c0,0-0.1,0-0.2,0.1
		c-0.1,0.1-0.2,0.1-0.3,0.1c-0.1,0-0.3,0.1-0.5,0.2c-0.2,0.1-0.5,0.2-0.6,0.2c-0.1,0-0.2,0.1-0.2,0.1c-0.1,0-0.1,0-0.2,0
		c-0.1,0-0.1,0-0.2,0.1c-0.1,0.1-0.2,0.2-0.3,0.2S89,23.9,89,24s-0.1,0.1-0.2,0.1c-0.1,0-0.2,0.1-0.2,0.1c0,0.1-0.1,0.1-0.2,0.2
		c-0.1,0-0.3,0.1-0.4,0.1c-0.1,0-0.3,0.1-0.4,0.1c-0.1,0-0.3,0.1-0.4,0.2C87,24.9,86.9,25,86.8,25c-0.1,0-0.2,0-0.2,0
		c-0.1,0-0.2,0-0.3,0.1c-0.1,0.1-0.2,0.2-0.3,0.3c-0.1,0.1-0.2,0.1-0.2,0.1c-0.1,0-0.2,0-0.3,0s-0.2,0-0.3,0.1
		c-0.1,0-0.2,0.1-0.3,0.2s-0.2,0.1-0.2,0.1c-0.1,0-0.2,0-0.2,0.1c-0.1,0.1-0.2,0.1-0.3,0.2c-0.1,0-0.3,0.1-0.4,0.1
		c-0.1,0-0.3,0.1-0.3,0.1c-0.1,0-0.2,0.1-0.2,0.1c-0.1,0.1-0.2,0.1-0.2,0c-0.1,0-0.1-0.1-0.1-0.1c0,0-0.1,0-0.1,0.1
		c-0.1,0-0.2,0.2-0.2,0.3c-0.1,0.1-0.2,0.2-0.3,0.2c-0.1,0-0.3,0.1-0.4,0.1c0,0,0,0-0.1,0s-0.1,0-0.1,0c-0.1,0.1-0.2,0.2-0.3,0.2
		c-0.1,0-0.2,0-0.3,0.1c-0.1,0-0.2,0.1-0.4,0.1c-0.1,0-0.3,0.1-0.5,0.2c0,0,0,0-0.1,0.1c-0.1,0.1-0.1,0.1-0.1,0.1
		c-0.2,0.1-0.4,0.1-0.5,0.2c-0.1,0-0.2,0.1-0.2,0.1c0,0.1-0.1,0.1-0.2,0.2c-0.1,0-0.2,0.1-0.3,0.1c-0.1,0-0.2,0-0.3,0.1
		s-0.2,0.1-0.3,0.2c-0.1,0.1-0.2,0.1-0.3,0.1s-0.1,0-0.2,0.1c-0.1,0.1-0.2,0.1-0.3,0.2c-0.1,0-0.2,0.1-0.3,0.2
		c-0.1,0-0.2,0.1-0.3,0.1c-0.1,0-0.2,0-0.2,0c-0.1,0-0.1,0-0.2,0c-0.1,0.1-0.1,0.1-0.2,0.2c-0.1,0.1-0.4,0.2-0.8,0.3
		c-0.4,0.1-1.1,0.4-1.6,0.6c-0.5,0.2-1.2,0.5-1.6,0.6c-0.4,0.1-1.4,0.5-2.3,0.8c0,0,0,0-0.2,0s-0.2,0-0.2,0
		c-0.5,0.2-1.2,0.5-1.5,0.6s-0.5,0.1-0.5,0c0-0.1,0-0.2,0-0.3c0-0.1,0-0.4-0.1-0.6c0-0.2-0.1-0.7-0.1-1.1c0,0,0,0,0-0.1
		c0-0.1,0-0.1,0-0.1c0-0.3,0-0.8,0-1c0-0.2,0-0.5-0.1-0.7c-0.1-0.1-0.1-0.4-0.1-0.6c0,0,0,0,0-0.4c0-0.4,0-0.4,0-0.4
		c0,0-0.1-0.3-0.1-0.6c0,0,0,0,0-0.1c0-0.1,0-0.1,0-0.1c0-0.1,0.1-0.4,0-0.6c0-0.2-0.1-0.7-0.2-1.1c-0.1-0.4-0.2-1.1-0.2-1.4
		c0,0,0,0,0-0.2c0-0.2,0-0.2,0-0.2c-0.1-0.3-0.1-1-0.1-1.5s0-1.1-0.1-1.2s-0.2-0.4-0.3-0.6c-0.1-0.2-0.3-0.4-0.5-0.5
		c-0.1-0.1-0.4-0.2-0.6-0.3c-0.2-0.1-0.4-0.2-0.6-0.2c-0.1,0-0.3-0.1-0.4,0c-0.1,0-0.2,0.1-0.3,0.2c-0.1,0.1-0.3,0.2-0.5,0.3
		s-0.3,0.3-0.3,0.4c0,0.1,0,0.4,0,0.6s0,0.4-0.1,0.5c0,0,0,0,0,0.2c0,0.2,0,0.2,0,0.2c0,0.2,0,0.5,0,0.6c0,0.1,0,0.3,0.1,0.4
		c0,0.1,0,0.3,0.1,0.4c0,0.1,0.1,0.5,0.1,0.8c0.1,0.4,0.1,1,0.1,1.3c0,0.3,0,0.8,0,1c0,0.3,0,0.8,0,1.3c0,0.4,0,1.1,0,1.6
		c0,0.4,0,1.2,0,1.6c0,0.5,0,1.1,0.1,1.4c0,0.3,0.1,0.5,0,0.6c0,0.1-0.1,0.2-0.1,0.3c0,0.1,0,0.2,0,0.3c0,0.1,0,0.2,0,0.3
		s0,0.2,0.1,0.3c0,0.1,0,0.4-0.1,0.8c-0.1,0.3-0.1,0.7-0.2,0.7c0,0.1-0.2,0.1-0.2,0.2c-0.1,0-0.3,0.1-0.4,0.2
		c-0.1,0.1-0.3,0.2-0.4,0.2c-0.1,0.1-0.2,0.1-0.3,0.1c-0.1,0-0.3,0.1-0.4,0.1c-0.1,0.1-0.3,0.1-0.4,0.1c-0.1,0-0.3,0.1-0.5,0.3
		c0,0,0,0-0.2,0c-0.2,0,0,0-0.1,0c-0.1,0-0.1,0-0.1,0c-0.1,0-0.2,0-0.3,0.1c-0.1,0-0.2,0.1-0.3,0.1c-0.1,0-0.3,0.1-0.4,0.2
		c-0.2,0.1-0.4,0.1-0.5,0.2c0,0,0,0-0.1,0s-0.1,0-0.1,0c-0.2,0.1-0.5,0.3-0.7,0.3c-0.2,0.1-0.6,0.2-0.9,0.3c0,0,0,0-0.1,0
		c-0.1,0-0.1,0-0.1,0c-0.1,0-0.2,0-0.3,0c-0.1,0-0.2,0-0.3,0.1s-0.2,0.1-0.3,0.1c-0.1,0-0.2,0.1-0.2,0.1c-0.1,0-0.2,0-0.2,0
		c-0.1,0-0.1,0-0.2,0s-0.2,0-0.3,0.1c-0.1,0-0.1,0.1-0.1,0.1c0,0-0.1,0.1-0.2,0.2c-0.1,0.1-0.3,0.4-0.4,0.7c0,0,0,0-0.1,0
		c-0.1,0-0.1,0-0.1,0c0,0.1-0.1,0.2-0.1,0.3s0,0.3,0,0.3c0,0.1,0.1,0.2,0.2,0.3c0,0.1,0.2,0.1,0.3,0.2c0.1,0.1,0.3,0.1,0.4,0.1
		s0.3,0,0.5-0.1c0,0,0,0,0.1,0c0.1,0,0.1,0,0.1,0c0.2,0,0.5-0.1,0.6-0.1c0.1,0,0.2,0,0.3,0s0.2,0,0.3-0.1c0.1,0,0.4-0.1,0.7-0.2
		c0.2-0.1,0.5-0.1,0.6-0.1c0.1,0,0.3,0,0.4-0.1s0.3-0.1,0.3-0.1c0.1,0,0.3-0.1,0.4-0.1c0.2-0.1,0.7-0.2,1.2-0.3c0,0,0,0,0.1,0
		s0.1,0,0.1,0c0.2-0.1,0.5-0.1,0.6-0.2c0.2-0.1,0.7-0.2,1.1-0.3s0.9-0.2,1.1-0.3c0.1,0,0.3,0,0.3,0.1c0,0.1,0,0.2,0,0.3
		c0,0.1,0,0.2,0,0.2c0,0,0,0.1,0,0.2c0,0.1,0,0.2,0,0.2c0,0,0,0.4,0,0.8c0,0,0,0,0.1,0.1s0.1,0.1,0.1,0.1c0,0.2,0,0.5,0,0.6
		c0,0.1,0,0.4,0,0.6c0,0.2,0,0.6,0,0.8c0,0.2,0.1,0.6,0.1,0.7c0,0.2,0,0.5,0.1,0.6c0,0.2,0.1,0.5,0.1,0.7c0,0.2,0,0.5,0,0.7
		c0,0.2,0,0.3,0,0.4c0,0,0,0.1,0,0.2s0,0.2,0,0.3c0,0.1,0,0.2,0,0.4c0,0.1,0.1,0.3,0.1,0.3c0,0,0,0.1,0,0.1c0,0,0,0,0,0
		c0,0,0,0.1,0,0.2c0,0,0,0,0,0.1c0,0.1,0,0.1-0.1,0.2c-0.1,0.1-0.1,0.1-0.1,0.1c-0.2,0.7-0.4,1.4-0.4,1.4c0,0.1-0.1,0.2-0.1,0.3
		c0,0.1-0.1,0.2-0.1,0.2c0,0,0,0.1-0.1,0.1c0,0,0,0,0,0c0,0-0.1,0.1-0.2,0.3c0,0,0,0,0,0.1s0,0.1,0,0.1c-0.1,0.1-0.2,0.3-0.3,0.4
		c0,0,0,0,0,0.1c0,0.1,0,0.1,0,0.1c0,0.1,0,0.2-0.1,0.3c0,0-0.1,0.1-0.1,0.2c0,0.1-0.2,0.2-0.3,0.4c-0.1,0.1-0.3,0.4-0.4,0.5
		c-0.1,0.1-0.2,0.3-0.2,0.3c-0.1,0.1-0.2,0.2-0.3,0.3s-0.3,0.3-0.4,0.4c0,0,0,0-0.1,0c-0.1,0-0.1,0-0.2,0c-0.1,0-0.2,0-0.2,0
		s-0.1,0-0.1,0c-0.1,0-0.2-0.1-0.2-0.2c0,0,0-0.1,0-0.1c0,0,0-0.1,0-0.1c0-0.1,0-0.1-0.1-0.2c0,0,0-0.2,0-0.3c0-0.1,0-0.4,0-0.4
		c0-0.1,0-0.2-0.1-0.3c0,0,0,0,0-0.1c0-0.1,0-0.1,0-0.1c0-0.1-0.1-0.3-0.1-0.5c0-0.1,0-0.3,0-0.4s0-0.2-0.1-0.2c0,0,0,0,0-0.1
		c0-0.1-0.1-0.3-0.2-0.4c0-0.1,0-0.1,0-0.1c0-0.1,0-0.2,0-0.2c0,0,0,0,0-0.1c0-0.1,0-0.1,0-0.1c0,0,0,0,0,0c0,0,0-0.1-0.1-0.2
		c0-0.1-0.1-0.2-0.1-0.3s-0.1-0.1,0-0.2c0,0,0-0.1,0-0.2c0-0.1-0.1-0.2-0.1-0.2c0,0,0-0.1,0-0.2c0,0,0-0.2-0.1-0.3c0,0,0,0,0-0.1
		c0-0.1,0-0.1,0-0.1c0-0.1-0.1-0.2-0.1-0.3c0,0-0.1-0.2-0.1-0.3c0,0,0,0,0-0.1s0-0.1,0-0.1c0,0,0-0.1,0-0.2c0-0.1,0-0.1,0-0.1
		c0,0-0.1,0-0.1-0.1c0,0,0-0.1,0-0.2c0-0.1,0-0.3-0.1-0.5c0,0,0,0,0-0.1c0-0.1,0-0.1,0-0.1c0-0.1-0.1-0.3-0.1-0.5c0-0.2,0-0.4,0-0.4
		c0-0.1,0-0.2,0-0.2c0-0.1,0-0.1,0-0.2c0,0,0-0.2,0-0.2s0-0.2,0-0.2c0,0,0-0.1,0-0.2c0,0,0-0.1,0-0.2s0-0.2,0-0.3c0-0.1,0-0.2,0-0.4
		c0-0.1,0-0.3,0-0.3c0-0.1,0-0.2,0-0.2c0-0.1,0-0.1,0-0.2s0-0.2,0-0.2c0-0.1,0-0.2-0.1-0.2c0,0-0.1-0.1-0.1-0.1c0,0-0.1-0.1-0.1-0.1
		s0-0.1-0.1-0.1c0,0-0.1-0.1-0.2-0.1s-0.1,0-0.2,0c-0.1,0-0.2,0-0.2,0.1c-0.1,0-0.2,0.1-0.2,0.1c0,0.1-0.1,0.1-0.2,0.1
		c-0.1,0-0.2,0.1-0.3,0.2c-0.1,0.1-0.2,0.2-0.3,0.3c-0.1,0.1-0.3,0.4-0.4,0.6c-0.1,0.2-0.4,0.6-0.5,0.9c-0.1,0.2-0.3,0.6-0.3,0.8
		c-0.1,0.2-0.2,0.6-0.3,0.8c-0.1,0.3-0.3,1.1-0.6,1.8c0,0,0,0,0-0.1c0,0-0.5,1.1-0.5,1.2c0,0.1,0,0.1,0,0.1c0,0.1,0,0.1,0,0.2
		c0,0-0.1,0.1-0.1,0.1c0,0,0,0,0,0.1c0,0.1,0,0.1,0,0.2s0,0.1,0,0.1c0,0.1,0,0.2,0,0.2c0,0,0,0.1,0,0.2c0,0,0,0.1,0,0.1
		c0,0-0.1,0.1-0.1,0.1c0,0.1-0.1,0.2-0.2,0.3s-0.4,0.7-0.6,1.3c0,0,0,0,0-0.1c0-0.1,0-0.3-0.1-0.5c0-0.1,0-0.3,0-0.3
		c0-0.1,0-0.1,0-0.1c0-0.1-0.1-0.3-0.1-0.5c0-0.2,0-0.3,0-0.4c0,0,0-0.1-0.1-0.2c0,0,0-0.1,0-0.2c0-0.1,0-0.2,0-0.4s0-0.4-0.1-0.4
		c0-0.1,0-0.2,0-0.3c0-0.1,0-0.2,0-0.2c0,0,0,0,0-0.1c0-0.1-0.1-0.2-0.1-0.3s0-0.1,0-0.1c0-0.1,0.1-0.3,0-0.3c0,0,0-0.2-0.1-0.4
		c0-0.1-0.1-0.4-0.1-0.6c0-0.2-0.1-0.4-0.1-0.5c0-0.1-0.1-0.2-0.1-0.4c0-0.1,0-0.4,0-0.5c0,0,0,0,0-0.1s-0.1-0.5-0.1-0.6
		c0-0.1,0-0.1,0-0.1c0-0.1,0-0.3,0-0.3c0-0.1,0-0.2-0.1-0.2s-0.1-0.2-0.1-0.3c0,0,0,0,0-0.1c0-0.1,0-0.1,0-0.1c0-0.1,0-0.3,0-0.4
		c0-0.1,0-0.2,0-0.3c0-0.1-0.1-0.2-0.1-0.3c0-0.1-0.1-0.2-0.1-0.3s0-0.2,0-0.3s0-0.2,0.1-0.2c0-0.1,0-0.2,0-0.2c0-0.1,0-0.2,0-0.3
		c0-0.1,0-0.2,0-0.3c0-0.1,0-0.2-0.1-0.2c0,0-0.1-0.1-0.2-0.1c0,0-0.1-0.1-0.2-0.1s-0.2,0-0.3,0.1c-0.1,0-0.3,0.1-0.4,0.1
		c-0.1,0-0.2,0.2-0.3,0.3c-0.1,0.1-0.4,0.3-0.6,0.5c-0.2,0.2-0.6,0.4-0.7,0.6c-0.2,0.2-0.5,0.4-0.6,0.6c-0.1,0.2-0.3,0.4-0.4,0.6
		c-0.1,0.1-0.2,0.3-0.3,0.4c-0.1,0.1-0.2,0.3-0.3,0.4c-0.1,0.2-0.4,0.5-0.6,0.6c-0.2,0.2-0.5,0.4-0.6,0.6s-0.2,0.3-0.3,0.4
		c0,0.1-0.2,0.2-0.3,0.3c-0.1,0.1-0.2,0.3-0.3,0.4s-0.1,0.2-0.2,0.3c-0.1,0.1-0.3,0.4-0.5,0.7c-0.2,0.3-0.5,0.6-0.6,0.7
		c-0.1,0.1-0.2,0.2-0.3,0.2c-0.1,0-0.1-0.2-0.2-0.5c0-0.3-0.1-0.7-0.1-0.8s0-0.3,0-0.4s0-0.5,0.1-0.9c0,0,0,0,0-0.1s0-0.8,0-0.9
		s0-0.5-0.1-0.6s0-0.1,0-0.1c0,0,0-0.1,0-0.2c0-0.1,0-0.3,0-0.4c0-0.1,0-0.3,0-0.4c0,0,0,0,0-0.1c0-0.1,0-0.1,0-0.2
		c0-0.1,0-0.1,0-0.1c0,0,0.1-0.1,0.1-0.3s0-0.2,0-0.3c0,0,0-0.1-0.1-0.2c0,0-0.1-0.1-0.1-0.2c0,0,0,0-0.1-0.1
		c-0.1-0.1-0.1-0.1-0.1-0.1c0.1,0,0.1-0.1,0.2-0.2c0-0.1,0.1-0.2,0.1-0.3c0-0.1,0.1-0.2,0.1-0.2c0-0.1,0-0.2,0-0.2
		c0,0,0-0.1-0.1-0.2c0-0.1,0-0.2,0-0.2c0,0,0.1-0.2,0.1-0.3c0-0.1,0-0.3,0-0.4c0,0,0,0,0-0.1c0-0.1,0-0.1,0-0.1c0,0,0-0.1,0.1-0.1
		c0,0,0,0,0-0.1c0-0.1,0-0.1,0-0.1c-0.1-0.1-0.2-0.2-0.2-0.2c0,0,0-0.1,0-0.1c0,0,0-0.1,0-0.1c0,0,0-0.1-0.1-0.2
		c0-0.1-0.1-0.1,0-0.1c0,0,0.1,0,0.1-0.1c0,0,0-0.1,0-0.1c0,0,0-0.1,0-0.2c0,0,0-0.1,0-0.2c0-0.1,0-0.1,0-0.2c0,0,0-0.1,0-0.2
		c0-0.1,0-0.1,0-0.2c0,0,0-0.1,0-0.1c0,0,0-0.1-0.1-0.2c0-0.1-0.1-0.1-0.1-0.2c0,0,0-0.1,0-0.1s0-0.1,0.1-0.2c0,0,0.1-0.1,0.1-0.2
		s0-0.3,0-0.5c0,0,0,0,0-0.1c0-0.1,0-0.1,0-0.1c0-0.1,0-0.2,0-0.3c0-0.1,0-0.2,0-0.3c0-0.1,0-0.1,0-0.2c0,0-0.1-0.1-0.1-0.2
		c0,0,0-0.1,0-0.2c0,0,0-0.1,0-0.1c0,0,0-0.2,0-0.3c0,0,0,0,0-0.1c0-0.1,0-0.1,0-0.1c0,0,0,0,0-0.1c0,0,0-0.1,0-0.2
		c0-0.1-0.1-0.2-0.1-0.3c0,0,0,0,0-0.1c0-0.1,0-0.1,0-0.1c0,0,0-0.1,0-0.2c0,0,0-0.1,0-0.1c0,0,0.1-0.1,0.1-0.1c0,0,0-0.1,0-0.1
		c0,0-0.1-0.1-0.1-0.2c0-0.1,0-0.2,0-0.2c0,0,0-0.1,0-0.1s0-0.1,0-0.2c0-0.1,0-0.1,0-0.2c0,0,0-0.2,0-0.3c0-0.1,0-0.3,0-0.4
		c0-0.1,0-0.2-0.1-0.2s-0.1,0-0.1,0c0,0,0,0,0-0.1c0,0,0-0.1,0.1-0.1c0,0,0.1-0.2,0.1-0.4c0-0.1-0.1-0.3-0.1-0.4
		c-0.1-0.1-0.1-0.2-0.1-0.3c0-0.1,0-0.2,0.1-0.2c0,0,0.1-0.1,0.1-0.2c0,0,0-0.1,0-0.1c0,0,0-0.1,0-0.1c0,0,0-0.1-0.1-0.2
		c0-0.1,0-0.3,0-0.4c0-0.1,0-0.2,0-0.3c0-0.1,0-0.2-0.1-0.2c0-0.1-0.1-0.2-0.1-0.2c0-0.1-0.1-0.2-0.1-0.2c0,0,0,0,0-0.1
		c0-0.1,0-0.1,0-0.1c0-0.1,0-0.3,0.1-0.4c0-0.1,0-0.3,0-0.5c0,0,0,0,0-0.2c0-0.2-0.1-0.2-0.2-0.3C42,23.7,42,23.7,42,23.7
		c0-0.1,0-0.3,0-0.4c0-0.1,0-0.3,0-0.5c0-0.2,0-0.3-0.1-0.4c0,0,0,0,0-0.2c0-0.2,0-0.2,0-0.2c0-0.1-0.1-0.3-0.2-0.5c0,0,0,0,0-0.2
		c0-0.2,0-0.2,0-0.2c-0.1,0-0.1-0.1-0.1-0.1c0,0,0.1-0.2,0.1-0.3c0,0,0,0,0-0.1c0-0.1,0-0.2,0-0.2c0-0.1,0.1-0.1,0.1-0.1
		c0.1,0,0.1,0,0.1,0c0-0.1,0-0.2,0-0.3c0-0.1,0-0.2,0.1-0.3c0,0,0,0,0-0.1c0-0.1,0-0.1,0-0.1c0-0.1,0-0.2,0-0.3
		c0-0.1-0.1-0.3-0.1-0.5c-0.1-0.2-0.2-0.4-0.3-0.6c-0.1-0.1-0.2-0.2-0.3-0.2c-0.1,0-0.1-0.1-0.2-0.1S41,18,41,18s-0.1-0.1-0.1-0.1
		c0,0,0,0-0.1,0c-0.1,0-0.1,0-0.1,0c0,0-0.1,0-0.1,0c0,0-0.1,0-0.1-0.1c0,0,0,0-0.1-0.1c-0.1-0.1-0.1-0.1-0.1-0.1c0,0-0.1,0-0.3,0
		c0,0,0,0-0.1,0c-0.1,0-0.1,0-0.1,0c0,0-0.1-0.1-0.2-0.1c-0.1,0-0.3-0.1-0.6-0.2c0,0,0,0-0.1,0c-0.1,0-0.1,0-0.1,0
		c-0.2-0.1-0.4-0.1-0.4-0.2c0,0-0.1,0-0.2,0c-0.1,0-0.2,0-0.2,0c0,0-0.1,0-0.1,0c0,0-0.1,0-0.2,0c-0.1,0-0.1-0.1-0.2-0.1
		c0,0-0.1-0.1-0.1-0.1c0,0-0.1-0.1-0.1-0.1s-0.1,0-0.2,0c-0.1,0-0.2,0-0.3,0.1c-0.1,0-0.2,0.1-0.3,0.1c-0.1,0-0.1,0-0.1,0
		c0,0-0.1,0-0.1,0c-0.1,0-0.1,0-0.2,0c0,0-0.1-0.1-0.1-0.1c0,0-0.1-0.1-0.2-0.1c0,0-0.1,0-0.2,0c-0.1,0-0.1,0.1-0.2,0.1
		c0,0-0.1,0.1-0.1,0.2s-0.1,0.2-0.1,0.3c0,0.1,0,0.2-0.1,0.3c0,0.1-0.1,0.2-0.1,0.2c0,0.1,0,0.2,0,0.2s-0.1,0.2-0.1,0.3
		c0,0,0,0,0,0.1c0,0.1,0,0.1,0,0.1c0.1,0.4,0.2,0.8,0.2,0.8c0,0.1,0,0.3,0,0.5c0,0.2,0.1,0.5,0.1,0.6c0,0.1,0,0.2,0.1,0.3
		s0.1,0.3,0.1,0.4c0,0.1,0,0.3,0,0.3c0,0-0.1,0.1,0,0.2c0,0,0,0.2,0.1,0.5c0,0.2,0.1,0.4,0.1,0.4c0,0,0,0.1,0,0.1
		c0,0.1,0,0.2-0.1,0.3c0,0.1,0,0.2,0,0.3s0,0.3,0,0.4c0,0.1,0,0.3,0,0.4c0,0.1,0,0.2,0,0.3c0,0.1,0,0.1,0,0.2c0,0,0,0.1,0,0.2
		c0,0.1,0,0.3,0,0.5c0,0.2,0,0.4,0,0.5c0,0.1,0,0.2,0,0.2c0,0.1,0,0.2-0.1,0.2c0,0,0,0.3,0,0.6s0,0.6,0,0.8c0,0.1,0,0.5,0,0.7
		c0,0.2,0,0.5,0,0.6c0,0.1,0,0.4,0,0.5c0,0.2,0,0.5,0,0.7c0,0.2,0,0.4,0,0.5c0,0.1,0,0.3,0,0.4c0,0.2,0,0.4,0,0.5c0,0.1,0,0.2,0,0.3
		s0,0.2,0.1,0.3c0,0.1,0,0.3,0,0.5c0,0,0,0,0,0.1c0,0.1,0,0.1,0,0.1c0,0.1,0,0.2,0,0.2c0,0,0,0.1,0,0.1c0,0,0,0.1,0,0.2s0,0.5,0.1,1
		c0,0,0,0,0,0.1s0,0.1,0,0.1c0,0.1,0.1,0.4,0.1,0.5c0,0.1,0,0.3,0,0.3c0,0.1,0,0.2,0,0.2c0,0.1,0,0.3,0,0.5s0.1,0.6,0.1,0.8
		c0,0.2,0,0.4,0.1,0.4c0,0,0,0.1,0,0.1c0,0,0,0.1,0,0.2c0,0.1,0,0.3,0,0.5c0,0.2,0,0.5,0,0.6c0,0,0,0,0,0.1c0,0.1,0,0.1,0,0.1
		c0,0,0,0.1,0,0.1c0,0,0,0.1,0,0.2c0,0.1,0,0.2,0,0.3s0,0.2,0.1,0.2c0,0,0,0.1,0,0.2c0,0,0,0.1,0,0.2c0,0.1,0,0.2,0,0.3
		s0,0.2,0.1,0.3c0,0,0.1,0.1,0.1,0.1c0,0,0,0.2,0,0.3c0,0.1,0,0.3,0,0.4c0,0.1,0,0.3,0,0.4c0,0,0,0,0,0.1c0,0.1,0,0.1,0,0.1
		c0,0.1,0,0.1,0,0.1s0.1,0.1,0.1,0.1s0,0.1,0,0.2c0,0.1,0,0.2,0,0.3c0,0,0,0.1,0,0.2s0,0.2,0,0.2c0,0.1,0,0.2,0,0.2
		c0,0,0,0.1,0.1,0.2c0,0,0.1,0.1,0,0.2c0,0.1,0,0.2,0,0.2c0,0.1,0,0.2,0,0.2c0,0.1,0,0.2,0,0.2c0,0,0.1,0.1,0.1,0.1
		c0,0,0.1,0.1,0.1,0.2c0,0,0,0.1,0,0.1c0,0,0,0.1,0,0.1c0,0-0.1,0.1-0.1,0.2c0,0,0,0,0,0.1c0,0.1,0.1,0.1,0.1,0.2c0,0.1,0,0.1,0,0.1
		c0,0.2,0,0.5,0,0.5c0,0,0,0.1,0,0.2c0,0,0,0.1,0,0.2s0.1,0.3,0.1,0.4c0,0.1,0,0.5,0,0.8c0,0,0,0,0,0.1c0,0.1,0.2,0.2,0.2,0.3
		c0,0.1,0,0.1,0,0.1c0.1,0.2,0.1,0.5,0.1,0.6s0,0.2,0,0.3s0,0.3,0,0.4c0,0.1,0,0.4,0.1,0.6c0,0.2,0.1,0.4,0.1,0.5
		c0,0.1,0.1,0.2,0.1,0.3s0.1,0.4,0.1,0.6c0,0.2,0.1,0.5,0.1,0.7c0,0.1,0,0.2,0,0.3s0,0.1,0,0.2c0,0.1,0,0.2,0,0.2c0,0,0,0.2,0,0.3
		s0.1,0.8,0.2,1.3c0,0,0,0,0.1,0.5c0.1,0.5,0.1,0.5,0.1,0.5c0.1,0.3,0.2,0.7,0.3,1c0,0,0,0,0,0.2c0,0.2,0,0.2,0,0.2
		c0.1,0.1,0.3,0.4,0.3,0.8c0,0,0,0,0,0.1c0,0.1,0,0.5,0.1,0.6c0,0.1,0.2,0.5,0.2,0.6S39,58.2,39,58.3s0,0.4,0.1,0.6
		c0,0.2,0,0.2,0,0.2c0.1,0.4,0.2,0.8,0.2,1s0.1,0.6,0.1,0.8c0,0.3,0.1,0.5,0.1,0.6c0,0.1,0.1,0.5,0.1,0.8c0,0,0,0,0,0.1
		c0,0.1,0,0.1,0,0.1c0.1,0.2,0.1,0.5,0.2,0.5c0,0,0.1,0.1,0.2,0.1c0.1,0,0.1,0.1,0.1,0.2c0,0.1,0,0.2-0.1,0.3c0,0.1,0,0.3,0,0.3
		c0,0.1,0.1,0.2,0.1,0.2s0,0.2,0.1,0.3c0,0.1,0.1,0.3,0.1,0.5c0,0,0,0,0,0.1c0,0.1,0,0.1,0,0.1c0,0.1,0.1,0.2,0.1,0.4
		c0,0.1,0.1,0.3,0.1,0.4c0,0.1,0.1,0.2,0.1,0.3c0,0.1,0,0.2,0,0.4c0,0.1,0,0.3,0,0.4c0,0.1,0.1,0.2,0.2,0.3c0,0,0,0,0,0.1
		c0,0.1,0,0.1,0,0.1c0,0.1,0,0.3,0,0.5s0.1,0.3,0.2,0.4c0,0.1,0.1,0.2,0.1,0.4c0,0.1,0,0.3,0.1,0.4c0,0.1,0.1,0.2,0.1,0.4
		c0,0.1,0,0.3,0.1,0.4c0,0.1,0.1,0.2,0.1,0.3s0.1,0.2,0.2,0.2s0.1,0.1,0.1,0.2c0,0.1,0,0.2,0,0.3c0,0.1,0.1,0.3,0.1,0.3
		c0,0.1,0.1,0.2,0.1,0.3s0,0.3,0,0.4c0,0.1,0.1,0.2,0.1,0.3c0,0,0.1,0.1,0.1,0.1c0,0,0.1,0.1,0.1,0.1s0,0,0,0.1c0,0,0,0,0,0s0,0,0,0
		c0,0,0,0,0,0.1c0,0,0,0,0,0.1c0,0.1,0,0.1,0,0.1c0,0,0,0,0,0.1c0,0,0,0.1,0,0.1c0,0,0,0,0,0.1c0,0,0,0,0,0c0,0,0.1,0,0.1,0
		c0,0,0,0,0,0c0,0,0,0,0,0.1c0,0.1,0,0,0,0.1c0,0,0,0.1,0,0.1c0,0,0,0,0,0c0,0.1,0,0.1,0,0.1c0,0,0,0,0.1,0c0,0,0.1,0,0.1,0.1
		c0,0,0,0.1,0.1,0.1s0,0.1,0.1,0.1c0,0,0,0,0,0c0,0,0,0,0,0c0,0-0.1,0.1-0.1,0.1c0,0,0,0.1,0,0.1c0,0,0.1,0.2,0.2,0.4c0,0,0,0,0,0
		c0,0,0,0.1,0,0.2s0,0,0,0c0,0-0.1,0-0.1,0.1c0,0,0,0,0,0c0,0,0,0,0,0c0,0,0.1,0.1,0.1,0.1c0,0,0,0,0.1,0.1c0,0,0,0.1,0,0.2
		c0,0,0,0,0,0c0,0,0,0.1,0,0.2c0,0,0,0.1,0.1,0.1s0,0.1,0,0.1s0,0.1,0,0.2c0,0.1,0,0.1,0,0.2c0,0,0.1,0.1,0.1,0.2c0,0,0,0,0,0
		c0,0,0,0.1,0,0.1s0,0.1,0,0.1c0,0,0,0.1,0,0.1s0,0.1,0.1,0.1c0,0,0,0,0,0c0,0,0,0,0,0c0,0,0,0.1,0,0.1c0,0,0,0.1,0,0.1
		c0,0,0,0.1,0,0.2c0,0.1,0,0.2,0,0.2c0,0,0,0.1,0.1,0.1c0,0,0.1,0.1,0.1,0.1c0,0,0.1,0.1,0.1,0.2c0,0.1,0.1,0.2,0.1,0.2
		s0.1,0.2,0.1,0.2c0,0.1,0,0.2,0,0.3c0,0.1,0,0.2,0.1,0.2s0.1,0.2,0.1,0.2c0,0.1,0,0.3,0.1,0.4c0,0.1,0.1,0.3,0.1,0.4
		s0.1,0.2,0.1,0.2c0,0.1,0,0.2,0.1,0.3c0,0.1,0,0.2,0.1,0.3c0,0.1,0.1,0.2,0.1,0.2c0,0,0,0.1,0,0.1s0,0.1,0,0.1c0,0,0,0.1,0.1,0.2
		c0,0.1,0,0.2,0,0.2c0,0.1,0,0.2,0,0.2c0,0.1,0,0.1,0.1,0.2c0,0,0.1,0.2,0.1,0.2c0,0.1,0,0.2,0.1,0.3c0,0.1,0.1,0.2,0.1,0.3
		c0,0.1,0.1,0.2,0.1,0.3c0,0.1,0,0.1,0.1,0.2c0,0,0,0.1,0.1,0.2c0,0.1,0-0.1,0-0.4c0,0,0,0,0-0.1c0-0.1-0.1-0.2-0.1-0.3
		c0-0.1,0-0.1,0-0.1c0-0.1-0.1-0.2-0.1-0.3c0-0.1-0.1-0.2-0.1-0.3c0-0.1,0-0.2,0-0.3c0,0,0,0,0-0.1c0-0.1,0-0.1,0-0.1
		c0-0.1,0-0.2-0.1-0.3c0-0.1,0-0.1,0-0.2c0,0-0.1-0.1-0.1-0.2c0,0,0,0,0-0.1s0-0.1,0-0.1c0-0.1-0.1-0.2-0.1-0.2c0,0,0-0.1,0-0.2
		c0,0,0,0,0-0.1s0-0.1,0-0.1c0,0,0-0.1,0-0.1c0,0,0-0.1-0.1-0.1c0,0-0.1-0.1-0.1-0.2c0,0,0,0,0-0.1c0-0.1,0-0.2,0-0.2
		c0-0.1,0-0.1,0-0.1c0-0.1,0.1-0.2,0.1-0.2c0,0,0,0,0-0.1c0-0.1,0-0.2,0.1-0.2c0-0.1,0-0.1,0-0.2c0-0.1,0-0.1,0-0.1
		c0-0.1-0.1-0.1-0.1-0.2c0,0,0-0.2,0-0.3c0,0,0,0,0-0.1c0-0.1,0-0.2,0-0.2c0-0.1,0-0.1,0-0.1c0.1,0,0.1-0.1,0.1-0.1c0,0,0,0,0-0.1
		c0-0.1,0-0.1,0-0.1s0-0.1-0.1-0.1c0,0,0,0,0-0.1c0-0.1,0-0.1,0-0.2c0-0.1,0-0.1,0-0.1c0,0,0-0.1,0-0.2c0,0,0-0.1,0-0.1
		c0,0,0-0.1,0-0.1c0,0,0-0.1-0.1-0.1c0,0,0-0.1,0-0.2c0-0.1,0-0.2,0-0.3c-0.1-0.1-0.1-0.2-0.1-0.3c0,0,0,0,0-0.1s0-0.1,0-0.1
		c-0.1-0.1-0.2-0.3-0.2-0.4c0-0.1-0.1-0.3-0.1-0.3c0-0.1,0-0.2,0-0.3c0,0,0,0,0.1,0s0.1,0,0.1,0c0-0.2-0.1-0.5-0.2-0.6
		c0,0,0,0,0-0.1c0-0.1,0-0.1,0-0.1c0-0.6,0-1.1,0-1.2c0-0.1,0-0.3,0-0.3c0-0.1,0-0.2,0-0.3c0-0.1,0-0.3,0-0.4c0-0.2,0-0.3,0-0.4
		c0-0.1,0-0.4,0-0.8c0,0,0,0,0-0.1c0-0.1,0-0.1,0-0.1c0-0.1,0-0.2,0-0.3c0-0.1-0.1-0.4-0.1-0.6c0-0.2,0-0.5,0-0.6c0,0,0,0,0-0.1
		c0-0.1,0-0.1,0-0.1c0-0.1,0-0.2-0.1-0.3c0-0.1-0.1-0.1,0-0.2c0,0,0-0.1,0-0.1c0-0.1-0.1-0.1-0.1-0.1c-0.1,0-0.1-0.1,0-0.3
		c0,0,0,0,0-0.1c0-0.1,0-0.1,0-0.1c0.1,0,0.1-0.1,0.1-0.1c0,0-0.1-0.1-0.1-0.2c0,0,0,0,0-0.1s0-0.1,0-0.1c0-0.2,0-0.3,0-0.4
		c0,0,0-0.1-0.1-0.2c-0.1-0.1-0.1-0.2-0.1-0.2c0,0,0,0,0-0.1c0-0.1,0-0.1,0-0.1c0.1-0.4,0.1-0.8,0-0.8c0,0-0.1-0.1-0.1-0.2
		c0,0,0,0,0-0.1c0-0.1,0.1-0.2,0.1-0.2c0-0.1,0-0.1,0-0.1c0.1,0,0.1-0.1,0.1-0.2c0-0.1,0-0.3,0-0.4c0,0,0,0,0-0.1s0-0.1,0-0.1
		c0-0.1-0.1-0.2-0.1-0.2c0-0.1,0-0.2,0-0.3c0-0.1,0-0.2,0-0.2c0,0,0-0.1,0-0.1c0,0,0-0.1,0.1-0.1s0.1,0,0.1,0c0,0,0-0.1,0-0.2
		c0,0,0,0,0-0.1c0-0.1-0.1-0.2-0.1-0.3c0-0.1,0-0.1,0-0.1c0,0,0.1-0.1,0.1-0.1c0,0,0-0.1-0.1-0.2c0,0,0,0,0-0.1c0-0.1,0-0.2-0.1-0.2
		c-0.1-0.1,0-0.3,0-0.4c0-0.1,0-0.1,0-0.1c0-0.3-0.1-0.6-0.1-0.7c0,0,0,0,0-0.1c0-0.1,0-0.1,0-0.1c0.1,0,0.1-0.4,0.1-0.9
		c0,0,0,0,0-0.1s-0.1-0.3-0.1-0.3c-0.1,0-0.1,0-0.1,0c0.1-0.2,0.1-0.4,0.1-0.5c0-0.1,0-0.2,0-0.3c0,0-0.1-0.1-0.1-0.2c0,0,0,0,0-0.1
		c0-0.1-0.1-0.2-0.1-0.3s0.1-0.3,0.1-0.4c0-0.1,0-0.1,0-0.1c0-0.1,0-0.2,0-0.2c0,0,0-0.2,0-0.3c0,0,0,0,0-0.1s0-0.1,0-0.1
		c0.1-0.1,0.1-0.2,0.1-0.3c0-0.1,0-0.2-0.1-0.3C43,56.2,43,56.1,43,56c0,0,0,0,0-0.1c0-0.1,0-0.1,0-0.1c0,0,0-0.2,0-0.3
		c0,0,0,0,0-0.1s0-0.5,0-0.5c0-0.1,0-0.2,0-0.2c0-0.1-0.1-0.4-0.1-0.5c0-0.1-0.1-0.6-0.1-0.6c0-0.1,0.1-0.4,0.1-0.4
		c0-0.1,0-0.1,0-0.1c0-0.1-0.1-0.4-0.1-0.7c0,0,0,0,0-0.2c0-0.2,0.1-0.3,0.1-0.4c0-0.1,0-0.1,0-0.2s0-0.1,0-0.1c0,0,0,0,0-0.1
		c0,0,0-0.1,0-0.2c0,0,0,0,0-0.1c0-0.1,0-0.1,0-0.1c0,0,0.1-0.1,0.1-0.1c0,0,0-0.1,0-0.2c0-0.1,0-0.2,0-0.3s0-0.3,0-0.3
		c0-0.1,0-0.3,0.1-0.4c0,0,0,0,0-0.1c0-0.1,0-0.1,0-0.1c0.1-0.1,0.1-0.2,0.2-0.2c0,0,0.1-0.1,0.1-0.1c0,0,0-0.1,0-0.1
		c0,0,0.2-0.3,0.4-0.5c0,0,0,0,0,0c0-0.1,0-0.1,0-0.1c0.3-0.3,0.5-0.5,0.5-0.6c0.1-0.1,0.1-0.1,0.2-0.2s0.1-0.2,0.1-0.2
		c0,0,0.1-0.1,0.1-0.1c0,0,0.2-0.2,0.3-0.3c0,0,0,0,0.1-0.1c0.1-0.1,0.1-0.4,0.1-0.4c0-0.1,0-0.2,0.1-0.2c0-0.1,0-0.1,0-0.1
		c0.1-0.1,0.2-0.2,0.4-0.3c0,0,0,0,0.1-0.1c0.1-0.1,0.1-0.2,0.1-0.3c0-0.1,0-0.1,0-0.1c0.3-0.1,0.6-0.2,0.6-0.3
		c0-0.1,0.1-0.1,0.1-0.2c0,0,0.1-0.1,0.2-0.2c0,0,0,0,0.1-0.1c0.1-0.1,0.1-0.1,0.1-0.1c0-0.1,0-0.2,0-0.2c0-0.1,0-0.1,0-0.2
		c0,0,0-0.1,0-0.1c0,0,0.1-0.1,0.1-0.1c0,0,0,0,0.1,0c0.1,0,0.1,0,0.1,0c0,0,0,0,0-0.1c0,0,0-0.1,0.1-0.2c0.1-0.1,0.2-0.2,0.3-0.3
		c0.1-0.1,0.2-0.2,0.2-0.1c0,0,0,0.1,0.1,0.2s0,0.3,0.1,0.4c0,0.1,0.1,0.3,0.1,0.4c0,0.1,0.1,0.2,0.1,0.2c0,0,0,0.1,0,0.1
		c0,0,0.1,0.1,0.1,0.1c0,0,0.1,0.1,0.2,0.2c0.1,0.1,0.2,0.2,0.2,0.3c0.1,0.1,0.2,0.4,0.3,0.6s0.2,0.5,0.3,0.7s0.1,0.5,0.2,0.6
		c0,0.1,0.1,0.3,0.1,0.4c0,0.1,0,0.2,0.1,0.3c0,0.1,0.1,0.2,0.1,0.2c0,0,0,0.1,0,0.2c0,0,0,0.1,0,0.2c0,0,0,0.1,0,0.2
		c0,0,0.1,0.2,0.1,0.2c0,0,0,0,0,0.1c0,0.1,0.1,0.3,0.1,0.4c0,0.1,0.1,0.5,0.1,0.6c0,0.1,0.1,0.3,0.1,0.3c0,0.1,0,0.5,0,0.5
		c0,0.1,0.1,0.4,0.1,0.5s0,0.3,0.1,0.3c0.1,0.1,0.1,0.2,0.1,0.3c0,0.1-0.1,0.5-0.1,0.6c0,0.1-0.1,0.3-0.1,0.4c0,0.1,0,0.3,0.1,0.4
		c0,0.1,0,0.1,0,0.1c0,0.2,0.2,0.6,0.3,1c0.2,0.4,0.3,0.8,0.3,0.8s0,0.1,0,0.2c0,0,0,0.1,0,0.2c0,0,0,0,0,0.1s0,0.1,0,0.1
		c0,0,0,0.1,0.1,0.1c0,0,0,0,0.1,0c0.1,0,0.1,0,0.1,0c0,0,0,0.1,0.1,0.1c0,0,0.1,0.1,0.1,0.2c0,0.1,0.1,0.2,0.2,0.3s0.2,0.3,0.4,0.5
		c0,0,0,0,0,0.1c0,0.1,0.2,0.1,0.3,0.1c0.1,0,0.1,0,0.1,0c0.1,0,0.2,0.1,0.2,0.1c0.1,0,0.1,0,0.2,0c0.1,0,0.1-0.1,0.2-0.1
		c0,0,0.1-0.1,0.1-0.2c0-0.1,0.1-0.1,0.1-0.2c0,0,0.1-0.1,0.2-0.1c0.1,0,0.2-0.1,0.2-0.1c0,0,0,0,0-0.1c0-0.1,0.1-0.3,0.1-0.3
		c0-0.1,0-0.2,0-0.3c0-0.1,0-0.3,0-0.4c0-0.1-0.1-0.3-0.1-0.4c0-0.1-0.1-1.7-0.1-1.8c0-0.1,0.1-0.3,0.1-0.4S53,53.1,53,53
		s0.2-0.4,0.2-0.4s0.1-0.5,0.2-0.5c0-0.1,0.5-0.4,0.5-0.4c0-0.1,0-0.1,0-0.1c0-0.1,0.1-0.1,0.1-0.2c0,0,0,0,0-0.1c0-0.1,0-0.1,0-0.1
		c0,0,0-0.1,0.1-0.2c0,0,0.1-0.1,0.1-0.2c0,0,0.1-0.1,0.1-0.2c0-0.1,0-0.2,0-0.2c0,0,0,0,0-0.1c0-0.1,0-0.1,0-0.2s0.1-0.1,0.1-0.2
		c0-0.1,0-0.1,0-0.1c0.1-0.1,0.1-0.2,0.1-0.2c0,0,0-0.1,0-0.2c0,0,0,0,0-0.1c0-0.1,0.1-0.1,0.1-0.2c0-0.1,0.1-0.2,0.1-0.2
		c0-0.1,0-0.1,0-0.1c0-0.1,0-0.3,0.1-0.4c0-0.1,0.1-0.2,0-0.2c0,0,0-0.1,0-0.1c0,0,0-0.1,0-0.1c0,0,0.1-0.1,0.1-0.1c0,0,0-0.1,0-0.1
		c0,0,0-0.2,0-0.3c0-0.1,0-0.2,0-0.3c0-0.1,0-0.2,0-0.2c0,0,0-0.1,0-0.2c0,0,0.1-0.1,0.1-0.1c0,0,0.1,0,0.1,0c0,0,0.1,0.1,0.2,0.1
		c0.1,0.1,0.2,0.2,0.2,0.2c0.1,0.1,0.2,0.2,0.2,0.3c0.1,0.1,0.2,0.3,0.3,0.4c0.1,0.1,0.2,0.3,0.3,0.4s0.1,0.3,0.2,0.3
		c0,0.1,0.1,0.2,0.1,0.2c0,0.1,0,0.1,0.1,0.2c0,0,0.1,0.1,0.1,0.2c0,0.1,0,0.2,0.1,0.3c0,0.1,0.1,0.1,0.1,0.2c0,0,0,0.1,0,0.2
		c0,0.1,0,0.2,0,0.2c0,0.1,0.1,0.1,0.1,0.1c0,0,0.1,0.1,0.1,0.2c0,0.1,0,0.2,0.1,0.2c0,0,0,0.1,0.1,0.1s0.1,0.1,0.1,0.2
		c0,0,0,0.1,0,0.2c0,0,0.1,0.2,0.1,0.4c0.1,0.2,0.1,0.3,0.1,0.4c0,0,0,0.1,0.1,0.2c0,0,0,0,0.1,0.1c0.1,0.1,0.1,0.1,0.1,0.1
		c0,0,0,0,0,0.1c0,0,0,0.1,0,0.1c0,0.1,0,0.1,0.1,0.2c0,0,0.1,0.2,0.1,0.2c0,0.1,0.1,0.2,0.1,0.2c0,0,0.1,0.1,0.1,0.2
		c0,0.1,0.1,0.2,0.1,0.2c0,0.1,0.1,0.1,0.1,0.2c0,0,0.1,0.1,0.1,0.1c0,0,0,0.2,0.1,0.3c0,0,0,0,0,0.1c0,0.1,0,0.1,0,0.1
		c0.1,0.1,0.2,0.3,0.3,0.4c0.1,0.1,0.2,0.2,0.2,0.2c0,0,0.1,0.1,0.2,0.2c0,0,0,0,0.1,0c0.1,0,0.1,0,0.1,0c0.1,0.1,0.4,0,0.7-0.1
		c0,0,0,0,0.2-0.2c0.1,0,0.1,0,0.1,0c0,0,0-0.1,0-0.2c0,0,0,0,0-0.1c0-0.1,0-0.1,0-0.1c0,0,0.1-0.1,0.2-0.1c0.1,0,0.2-0.1,0.2-0.2
		c0,0,0,0,0-0.1s0-0.2,0-0.3c0-0.1,0.1-0.2,0.1-0.3c0-0.1,0.2-0.3,0.2-0.4c0.1-0.1,0.2-0.3,0.2-0.4c0-0.1,0-0.1,0-0.1
		c0-0.1,0.2-0.2,0.2-0.3c0,0,0,0,0.1-0.1c0.1-0.1,0.1-0.2,0.2-0.2c0-0.1,0.1-0.1,0.1-0.2s0-0.1,0-0.1c0,0,0-0.1,0-0.1s0-0.1,0-0.1
		c0,0,0.1-0.1,0.2-0.1c0,0,0,0,0.1,0c0.1,0,0.1-0.1,0.2-0.2c0.1-0.1,0.1-0.1,0.1-0.2c0-0.1,0.1-0.1,0.1-0.2c0-0.1,0.1-0.1,0.1-0.2
		c0-0.1,0-0.1,0-0.1c0.1,0,0.1,0,0.2-0.1c0,0,0,0,0-0.1s0-0.1,0-0.1c0,0,0-0.1,0-0.2c0,0,0,0,0-0.1c0-0.1,0-0.1,0-0.1
		c0,0,0-0.1,0-0.1c0,0,0-0.1,0.1-0.1c0,0,0.1-0.1,0.1-0.1c0,0,0.1-0.1,0.1-0.1c0,0,0-0.1,0.1-0.1c0,0,0.1-0.2,0.1-0.3
		c0,0,0,0,0.2-0.5c0-0.1,0-0.1,0-0.1c0,0,0.1-0.1,0.1-0.1c0,0,0,0,0,0c0-0.1,0-0.1,0-0.1c0.1,0,0.2-0.2,0.3-0.3c0,0,0,0,0,0.1
		c0,0.1,0,0.1-0.1,0.1s0,0.1,0,0.2s0.1,0.1,0.1,0.2c0,0.1-0.1,0.1-0.1,0.2s0,0.1,0.1,0.1c0.1,0,0.1,0.1,0.1,0.2
		c0.1,0.1,0.1,0.1,0.1,0.1c0,0,0,0.1,0.1,0.2c0,0,0,0,0,0.1c0,0.1,0,0.1,0,0.2c0,0.1,0,0.1,0,0.1c-0.1,0-0.1,0.1-0.1,0.1
		s0,0.2,0.1,0.3c0.1,0.1,0.1,0.3,0.1,0.3c0,0-0.1,0.1,0,0.2c0,0,0,0,0.1,0.1c0.1,0.1,0.1,0.1,0.1,0.2s0,0.2,0,0.2
		c0,0.1,0.1,0.1,0.2,0.2c0.1,0.1,0.1,0.1,0.1,0.2c0,0.1,0,0.1,0,0.1c-0.1,0-0.1,0.1-0.1,0.2c0,0,0,0,0,0.1c0,0.1,0,0.1,0,0.1
		c0.1,0.1,0.1,0.1,0.1,0.2c0,0,0,0.1,0,0.2c0,0.1,0,0.2,0.1,0.2c0,0.1,0,0.1-0.1,0.2c0,0,0,0,0,0.1c0,0.1,0,0.1,0,0.1
		c0.1,0.1,0.1,0.2,0.2,0.3c0,0.1,0.1,0.2,0.1,0.3c0.1,0.1,0.1,0.2,0,0.2c-0.1,0-0.1,0,0,0.1c0,0,0.1,0.1,0.1,0.2
		c0,0.1,0.1,0.3,0.2,0.4c0.1,0.2,0.1,0.3,0,0.3c0,0,0,0,0,0.1c0,0.1,0.1,0.2,0.1,0.3c0,0.1,0,0.1,0,0.1c0.1,0.1,0.2,0.3,0.1,0.3
		c0,0,0,0.1,0,0.2c0,0,0,0,0,0.1s0,0.1,0,0.1c0,0.1-0.1,0.2-0.1,0.2c0,0.1,0,0.2,0.1,0.3c0.1,0.1,0.2,0.2,0.2,0.3
		c0.1,0,0.1,0.1,0.1,0.1c0,0-0.1,0.1,0,0.2c0,0.1,0,0.2,0,0.2c0,0,0,0.2-0.1,0.3s0,0.2,0,0.3c0,0.1,0.1,0.1,0,0.2c0,0,0,0.1,0,0.2
		s0,0.2,0,0.2c0,0,0,0,0,0.1s0,0.1,0,0.1c0,0,0.1,0.2,0.1,0.3c0,0.1,0.1,0.5,0.2,0.8c0.1,0.3,0.1,0.6,0.2,0.7c0,0.1,0.1,0.2,0.1,0.3
		c0,0.1,0,0.3,0,0.4c0,0.1,0,0.3,0.1,0.3c0,0.1,0.1,0.2,0.1,0.3c0,0.1,0.1,0.2,0.1,0.3c0,0.1,0.1,0.2,0.1,0.2c0,0.1,0.1,0,0.1,0
		c0-0.1,0-0.2,0-0.3c0,0,0,0,0-0.1c0-0.1,0-0.1,0-0.1c0,0-0.1,0-0.1-0.1c0-0.1,0-0.2,0-0.3s0-0.2,0-0.3c0-0.1,0-0.1,0-0.2
		c0,0,0-0.1,0-0.2c0-0.1,0-0.2-0.1-0.2c0,0,0-0.1,0-0.1s0-0.1,0-0.1c0,0,0.1-0.1,0.1-0.1s0,0,0-0.1c0,0,0-0.3,0-0.5c0,0,0,0,0-0.1
		s-0.1-0.4-0.1-0.4c0-0.1,0.1-0.4,0.1-0.6c0-0.2,0-0.2,0-0.2c0-0.1,0-0.2-0.1-0.2c0-0.1-0.1-0.1,0-0.2c0,0,0-0.1,0.1-0.1
		c0,0,0-0.2,0-0.3c0,0,0,0,0-0.1c0-0.1-0.1-0.2-0.1-0.3c0-0.1,0-0.1,0-0.1c0,0,0.1-0.1,0.1-0.2c0,0,0,0,0-0.1s0-0.1,0-0.1
		c0-0.2,0-0.4,0-0.5c0-0.1-0.1-0.3-0.1-0.4c0-0.1,0-0.4,0-0.7c0,0,0,0-0.1-0.1c-0.1-0.1,0-0.3,0-0.4c0-0.1,0-0.1,0-0.1
		c0-0.1,0.1-0.2,0.1-0.3s0-0.2,0-0.3c0-0.1,0-0.3,0-0.5c0-0.1,0-0.4,0-0.5c0,0,0,0,0-0.1c0-0.1,0-0.1,0-0.1c0-0.1,0-0.3,0-0.5
		c0-0.1,0-0.3,0-0.4s0-0.3,0.1-0.5c0-0.2,0.1-0.4,0.1-0.4s0.1-0.3,0.1-0.3c0,0,0,0,0.1,0c0.1,0.1,0.1,0.1,0.2,0.1s0.2,0,0.3-0.1
		c0.1-0.1,0.1-0.2,0.2-0.2c0.1,0,0.1,0,0.1,0c0.1,0,0.1,0,0.1,0c0,0,0,0,0.1,0c0.1,0,0.1,0,0.1,0c0.1,0,0.3,0.1,0.2,0.1
		c0,0,0.2-0.1,0.2-0.1c0,0,0.1,0,0.2-0.1c0.1,0,0.2-0.1,0.4-0.1c0.1,0,0.3-0.1,0.3-0.2c0.1-0.1,0.2-0.1,0.2-0.1s0.1,0,0.2,0
		c0,0,0.1,0,0.2-0.1c0,0,0,0,0.1,0c0.1,0,0.1,0,0.1,0c0,0.1,0,0.3,0.1,0.4s0.1,0.3,0.1,0.4c0,0,0,0,0,0.1s0,0.1,0,0.1
		c0,0.2,0.1,0.5,0.2,0.7c0.1,0.2,0.1,0.4,0.2,0.5s0.1,0.3,0.2,0.5c0.1,0.2,0.2,0.3,0.2,0.4c0,0,0.1,0.2,0.2,0.3
		c0.1,0.1,0.2,0.3,0.3,0.4c0.1,0.1,0.2,0.2,0.3,0.3c0.1,0.1,0.3,0.2,0.4,0.3c0.2,0.1,0.3,0.2,0.4,0.2s0.1,0,0.1,0.1s0.1,0.1,0.2,0.1
		s0.3,0.1,0.4,0.1c0.1,0,0.3,0.1,0.5,0.1c0,0,0,0,0.1,0s0.1,0,0.1,0c0.2,0,0.4,0,0.5-0.1c0.1,0,0.3-0.1,0.4-0.1c0.1,0,0.3,0,0.4-0.1
		c0.1,0,0.3-0.1,0.4-0.1c0.1,0,0.3-0.1,0.4-0.3c0,0,0,0,0.1,0c0.1,0,0.1,0,0.1,0c0.1,0,0.3,0,0.4,0c0.1,0,0.2-0.1,0.2-0.1
		c0.1,0,0.2-0.1,0.3-0.1c0.1,0,0.3-0.1,0.5-0.2c0,0,0,0,0.1,0c0.1,0,0.1,0,0.1,0c0.1,0,0.3-0.1,0.3-0.2c0-0.1,0.1-0.1,0.1-0.2
		c0,0,0.2-0.1,0.2-0.1s0.2-0.1,0.3-0.1c0.1,0,0.2,0,0.2-0.1c0.1,0,0.2-0.1,0.3-0.2c0.1-0.1,0.3-0.2,0.5-0.3c0.1-0.1,0.4-0.3,0.6-0.4
		c0.2-0.1,0.4-0.4,0.6-0.5c0.1-0.2,0.4-0.4,0.6-0.6c0.2-0.2,0.4-0.4,0.5-0.6c0.1-0.1,0.2-0.3,0.3-0.4c0-0.1,0.1-0.2,0.2-0.2
		c0,0,0.1-0.1,0.1-0.1c0-0.1,0.1-0.2,0.1-0.3c0-0.1,0.1-0.2,0.2-0.3c0.1,0,0.1-0.2,0.2-0.3s0.1-0.3,0.1-0.4S84,48,84,48
		c0,0,0.1-0.1,0.2-0.2c0.1,0,0.2-0.1,0.3-0.2c0,0,0,0,0-0.1s0-0.1,0-0.1c0-0.2,0.2-0.5,0.3-0.7c0.1-0.2,0.3-0.5,0.4-0.8
		c0,0,0,0,0.1-0.1c0.1-0.1,0.1-0.1,0.1-0.1c0.1-0.5,0.2-1,0.3-1.2c0.1-0.2,0.1-0.4,0.2-0.5C85.8,44,85.9,44,86,44
		c0.1,0,0.2,0.1,0.2,0.2c0,0.1,0.1,0.2,0.2,0.3c0.1,0.1,0.1,0.3,0.2,0.6c0.1,0.2,0.2,0.6,0.2,0.8c0.1,0.2,0.1,0.6,0.2,0.8
		c0,0,0,0,0,0.1s0,0.1,0,0.1c0.1,0.5,0.2,0.9,0.2,1c0.1,0.1,0.1,0.3,0.1,0.5c0,0.1,0,0.4,0,0.5s0.1,0.4,0.1,0.7c0,0,0,0,0,0.1
		c0,0.1,0,0.1,0,0.1c0.1,0.5,0.2,1,0.3,1.2c0,0.2,0.1,0.5,0.1,0.7c0,0.2,0,0.4,0,0.4c0,0.1,0,0.2,0.1,0.2c0.1,0,0.2,0.2,0.2,0.4
		c0,0,0,0,0,0.1c0,0.1,0,0.1,0,0.1c0.1,0.3,0.3,0.6,0.4,0.8c0,0,0,0,0,0.1s0,0.1,0,0.1c0.1,0.1,0.2,0,0.2-0.2c0-0.2,0.1-0.4,0.1-0.5
		c0,0,0,0,0-0.1s0-0.1,0-0.1c0-0.3,0.1-0.5,0.2-0.6c0.1-0.1,0.1-0.3,0.2-0.5c0-0.2,0.1-0.6,0.1-0.8c0-0.3,0.1-0.6,0.1-0.8
		c0-0.2,0-0.4,0-0.5c0-0.1,0-0.2,0.1-0.3s0.1-0.4,0.1-0.8c0,0,0,0,0-0.1s0-0.1,0-0.1c0-0.6,0-1.2,0-1.3c0-0.1,0-0.3,0-0.5
		s0-0.4,0.1-0.6c0,0,0,0,0-0.1s0-0.1,0-0.1c-0.1-0.4-0.1-0.7,0-0.7c0.1,0,0.1-0.1,0.1-0.2c0-0.1,0-0.3,0-0.4c0,0,0,0,0-0.1
		c0-0.1,0-0.1,0-0.1c0-0.2,0.1-0.4,0.2-0.4c0.1-0.1,0.3-0.2,0.5-0.3c0,0,0,0,0.1-0.1c0.1-0.1,0.1-0.1,0.1-0.1
		c0.2-0.1,0.5-0.2,0.7-0.3c0.2-0.1,0.4-0.2,0.6-0.2c0.1,0,0.5-0.1,0.8-0.2c0,0,0,0,0-0.1s0-0.1,0-0.1c0.2-0.1,0.5-0.2,0.7-0.3
		c0.2-0.1,0.5-0.3,0.6-0.4c0.1-0.1,0.4-0.3,0.5-0.4c0.1-0.1,0.3-0.2,0.4-0.2c0.1,0,0.2-0.1,0.3-0.2s0.1-0.2,0.2-0.2
		c0-0.1,0.2-0.2,0.3-0.2c0.1-0.1,0.2-0.1,0.3-0.1s0.1,0,0.2,0.1c0.1,0,0.2,0.2,0.2,0.2c0,0.1,0.1,0.3,0.1,0.4c0,0,0,0,0.1,0.1
		c0.1,0.1,0.1,0.1,0.1,0.1c0.2,0.7,0.5,1.4,0.6,1.6c0.1,0.2,0.1,0.6,0.2,0.9c0.1,0.3,0.2,0.7,0.3,0.9c0,0,0,0,0,0.1
		c0,0.1-0.1,0,0,0.4c0.1,0.3,0.1,0.3,0.1,0.3c0,0.4,0,0.8,0,1c0,0,0,0,0.1,0.1c0.1,0.1,0.1,0.1,0.1,0.1c0.1,0.1,0.1,0.4,0.1,0.5
		c0,0,0,0,0.1,0.1c0.1,0.1,0.1,0.1,0.1,0.1c0.1,0.1,0.3,0.4,0.3,0.5c0.1,0.1,0.2,0.3,0.2,0.4c0.1,0.1,0.2,0.3,0.2,0.4
		c0.1,0.1,0.2,0.3,0.2,0.4c0.1,0.1,0.2,0.4,0.3,0.5s0.2,0.3,0.3,0.4c0,0.1,0.1,0.2,0.2,0.3c0,0.1,0.1,0.2,0.1,0.2
		c0,0.1,0.1,0.1,0.1,0.2c0,0.1,0.1,0.1,0.1,0.2c0,0,0.1,0.1,0.2,0.2c0.1,0.1,0.2,0.1,0.2,0.1c0.1,0,0.1-0.1,0.2-0.1
		c0,0,0.1-0.1,0.2-0.2c0.1-0.1,0.1-0.1,0.2-0.2c0,0,0.1-0.2,0.2-0.3c0.1-0.1,0.2-0.3,0.2-0.3c0.1-0.1,0.2-0.2,0.3-0.3c0,0,0,0,0.1,0
		c0.1,0,0.3-0.4,0.3-0.5c0-0.1,0-0.1,0-0.1c0.2-0.2,0.3-0.5,0.4-0.7c0-0.1,0.1-0.3,0.2-0.4c0.1-0.1,0.2-0.2,0.2-0.3
		c0.1-0.1,0.3-0.3,0.4-0.5c0.1-0.2,0.3-0.6,0.4-0.8c0.1-0.2,0.2-0.4,0.2-0.5s0.2-0.3,0.3-0.5c0.1-0.2,0.2-0.5,0.3-0.6
		c0-0.1,0.1-0.3,0.1-0.4s0.2-0.5,0.4-0.8c0.2-0.4,0.4-0.9,0.5-1.1c0,0,0,0,0-0.1s0-0.1,0-0.1c0.1-0.6,0.3-1.3,0.3-1.5
		c0-0.2,0.1-0.5,0.1-0.6c0-0.1,0-0.2,0-0.3c0,0,0-0.2,0.1-0.3c0,0,0,0,0.1,0c0.1,0,0.1,0,0.1,0c0.2-0.4,0.4-0.8,0.4-0.9
		s0.7-0.1,0.8-0.2c0.1-0.1,0.3-0.2,0.4-0.3c0.1,0,0.3-0.1,0.4-0.2c0.1-0.1,0.5-0.3,0.9-0.5c0,0,0,0,0.1,0s0.1,0,0.1,0
		c0.2,0,0.6,0,0.8,0.1c0,0,0,0,0,0.1c0,0.1,0.1,0.5,0.2,0.7c0.1,0.2,0.1,0.2,0.1,0.2c0,0.3,0,0.7,0,1s0.1,1.3,0.1,2.3c0,0,0,0,0,0.1
		c0,0.1,0.3,0.7,0.3,0.8c0,0.1,0.1,0.3,0.1,0.4s-0.1,0.1-0.1,0.4c0.1,0.3,0.1,0.3,0.1,0.3c0.1,0.3,0.1,0.7,0.1,0.8
		c0,0.1,0,0.3,0.1,0.5c0,0.2,0.1,0.5,0.1,0.7c0,0.2,0.1,0.5,0.1,0.6c0,0.1,0.1,0.4,0.1,0.6c0,0,0,0,0,0.1s0,0.1,0,0.1
		c0,0.3,0.1,0.7,0.1,0.9s0.1,0.3,0.1,0.4c0.1,0.1,0.1,0.3,0.1,0.5c0,0.1,0.1,0.1,0.2-0.1c0.1-0.2,0.2-0.4,0.3-0.4c0,0,0,0,0-0.1
		s0-0.1,0-0.1c0.1-0.3,0.3-0.6,0.4-0.8c0.1-0.1,0.2-0.4,0.2-0.5c0-0.1,0.1-0.4,0.2-0.6c0.1-0.2,0.1-0.5,0.2-0.6c0-0.1,0-0.3,0-0.3
		s0.1-0.2,0.2-0.5c0,0,0,0,0-0.1s0-0.1,0-0.1c0-0.1,0-0.4,0.1-0.6c0,0,0,0,0-0.1c0-0.1,0.3-0.8,0.3-0.8c0-0.1,0.2-0.5,0.2-0.7
		s0-0.1,0-0.1c0-0.1,0-0.4,0.1-0.8c0,0,0,0,0-0.1c0-0.1,0-0.3,0-0.4c0-0.1,0.1-0.4,0.1-0.5c0-0.1,0-0.1,0-0.1c-0.1-0.1,0-0.2,0-0.3
		c0,0,0,0,0-0.1c0-0.1,0-0.1,0-0.1c0-0.7,0.1-1.5,0.2-1.8c0,0,0,0,0-0.1s0-0.1,0-0.1c0-0.2,0.1-0.4,0.1-0.6c0-0.1,0-0.4,0-0.5
		c0-0.2,0.1-0.5,0.1-0.7c0-0.2,0.1-0.5,0.1-0.7c0-0.1,0-0.3,0-0.3c0,0,0-0.1-0.1-0.2c0-0.1,0-0.2-0.1-0.3c0-0.1-0.2-0.3-0.3-0.4
		c-0.2-0.1-0.3-0.3-0.4-0.3c-0.1-0.1-0.2-0.1-0.3,0c-0.1,0-0.1,0.1-0.2,0.2c0,0.1-0.1,0.1-0.2,0.1c-0.1,0-0.2,0-0.3,0
		s-0.4,0.1-0.6,0.2c-0.2,0.1-0.4,0.1-0.5,0.1c-0.1,0-0.2,0-0.3,0.1s-0.3,0.1-0.3,0.2c-0.1,0-0.2,0.1-0.4,0.1c0,0,0,0-0.1,0.1
		s-0.1,0.1-0.1,0.1c-0.3,0.1-0.5,0.2-0.6,0.3c0,0.1-0.1,0.1-0.2,0.2c0,0-0.1,0-0.2,0c-0.1,0-0.2,0.1-0.3,0.1c-0.1,0-0.2,0.1-0.2,0.2
		c-0.1,0.1-0.2,0.1-0.3,0.1s-0.4,0-0.6,0.1s-0.5,0.1-0.6,0c-0.1,0-0.4-0.1-0.6-0.1s-0.5-0.2-0.7-0.4c0,0,0,0-0.1,0
		c-0.1,0-0.2,0-0.3-0.2s0-0.1,0-0.1c-0.1-0.1-0.3-0.2-0.4-0.3c-0.1-0.1-0.4-0.3-0.6-0.4c-0.3-0.1-0.5-0.1-0.6,0c0,0,0,0,0,0.1
		s-0.2,0.3-0.3,0.4s-0.1,0.1-0.1,0.1c-0.2,0.3-0.4,0.6-0.5,0.7c0,0,0,0-0.1,0.1s-0.1,0.1-0.1,0.1c-0.1,0.1-0.1,0.2-0.2,0.3
		c0,0.1-0.1,0.3-0.1,0.5c0,0,0,0-0.1,0.1c-0.1,0.1-0.1,0.1-0.1,0.1c0,0.5,0,1,0,1.2c0,0.2-0.1,0.5-0.2,0.8c-0.1,0.2-0.2,0.6-0.2,0.7
		c0,0.1,0,0.3,0,0.5c0,0.1,0.1,0.3,0.1,0.4c0,0,0,0,0,0.2c0,0.2,0.1,0.5,0.1,0.6s-0.1,0.6-0.1,0.7s0,0.1,0,0.1
		c0,0.3-0.1,0.7-0.1,0.9c0,0.2-0.1,0.5-0.2,0.8c0,0,0,0,0,0.1s-0.1,0.3-0.1,0.4c0,0.1-0.4,1-0.5,1.1c-0.1,0.1-0.1,0.1-0.1,0.1
		c-0.2,0.4-0.4,0.9-0.6,1.2c-0.1,0.3-0.3,0.3-0.4,0c-0.1-0.3-0.2-0.7-0.2-0.9c0-0.2-0.1-0.6-0.1-0.9c0-0.3,0-0.7,0-0.8
		c0,0,0,0,0-0.1c0-0.1,0-0.4,0-0.6c0-0.1,0-0.1,0-0.1c0-0.2-0.1-0.5-0.1-0.7c0-0.2,0-0.5,0-0.6c0-0.1-0.1-0.3-0.1-0.4c0,0,0,0,0-0.1
		c0-0.1,0-0.1,0-0.1c0-0.3,0-0.9-0.1-1.4c-0.1-0.5-0.2-0.9-0.2-0.9c0,0-0.2-0.3-0.3-0.5c-0.2-0.3-0.3-0.5-0.3-0.5 M64,48.9
		C64,48.9,64,48.9,64,48.9C64,48.9,64,49,64,48.9z M73.6,45.6c-0.1,0.1-0.1,0.2-0.2,0.2c-0.1,0.1-0.1,0.1-0.1,0.1
		c-0.1,0.1-0.2-0.3-0.2-0.8c0,0,0,0,0.1-0.1c0.1-0.1-0.1-0.4-0.1-0.4c0,0,0.2-0.4,0.2-0.5c0-0.1,0-0.2,0.1-0.3
		c0.1-0.1,0-0.3,0.1-0.3c0,0,0.1-0.1,0.1-0.2c0-0.1,0.1-0.2,0.1-0.2c0.1-0.1,0-0.4,0.2-0.6c0.1-0.1,0.2-0.2,0.3-0.3
		c0,0,0.1-0.1,0.1-0.1c0.2-0.2,0.3-0.2,0.3-0.2c0-0.1,0.1-0.1,0.2-0.3c0-0.1,0.1-0.1,0.1-0.1c0.1-0.1,0.3-0.1,0.4-0.1
		c0.1,0,0.2,0,0.3-0.1c0.1-0.1,0.2,0,0.3-0.1c0.1-0.1,0.1-0.1,0.1-0.1c0.2,0,0.4,0,0.4,0c0,0,0,0,0.1,0c0.2,0,0.3,0,0.3,0
		c0,0,0,0.1,0,0.2c0,0.1,0,0.2,0,0.3c-0.1,0.1,0,0.3-0.1,0.4c0,0-0.1,0.1-0.1,0.1c-0.1,0.1,0,0.2,0,0.3c-0.1,0.1,0,0.1-0.1,0.3
		c-0.1,0.1-0.1,0-0.2,0.1C76,42.6,76,42.9,76,43c-0.1,0.1-0.1,0.2-0.2,0.3c-0.1,0.1-0.2,0.3-0.2,0.3c-0.1,0.1-0.1,0.1-0.2,0.2
		c-0.1,0.1-0.2,0.1-0.2,0.2c0,0.1,0,0.1-0.1,0.1c-0.1,0.1-0.2,0.3-0.3,0.4c-0.1,0.1-0.1,0.1-0.2,0.2c-0.1,0.1-0.1,0.2-0.2,0.3
		c0,0-0.1,0.1-0.2,0.1c-0.1,0.1-0.1,0.1-0.2,0.2c-0.1,0.1-0.1,0.1-0.2,0.2C73.7,45.6,73.6,45.6,73.6,45.6z M154.1,36.3
		c-0.1,0-0.2,0-0.2-0.1c-0.1-0.1-0.2-0.1-0.4-0.2c-0.1-0.1,0.2-0.3,0.2-0.4c0-0.1,0-0.1,0-0.1c0-0.1,0-0.2,0-0.3
		c0,0,0.1-0.1,0.2-0.1s0.2,0,0.2,0c0,0,0.1,0,0.1,0c0,0,0.1,0,0.1-0.1c0,0,0.1,0,0.1-0.1c0,0,0.1-0.1,0.1-0.1c0,0,0.1,0,0.2,0
		c0.1,0,0.1,0,0,0c-0.1,0-0.1,0-0.2,0c0,0-0.1,0-0.1,0c0,0-0.1,0-0.1,0c0,0-0.1,0-0.1,0c0,0-0.1,0-0.1-0.1c0,0-0.1,0-0.1,0
		c0,0-0.2-0.1-0.3-0.2c-0.1-0.1-0.4-0.3-0.6-0.6c0,0,0,0-0.1,0c-0.2,0-0.2,0-0.2,0c-0.2,0-0.4,0-0.5,0c-0.1,0-0.3-0.1-0.4-0.1
		c-0.1-0.1-0.5-0.2-0.9-0.4c0,0,0,0-0.5,0c-0.1,0-0.1,0-0.1,0c-0.3-0.1-0.6-0.2-0.8-0.2c-0.2,0-0.4-0.1-0.6-0.1
		c-0.2,0-0.5-0.1-0.7-0.1c-0.2,0-0.6-0.1-0.8-0.1c-0.2,0-0.6-0.1-0.9-0.2c-0.2-0.1-0.6-0.2-0.9-0.3s-0.7-0.3-1.1-0.4c0,0,0,0-0.1,0
		c-0.1,0-0.1,0-0.1,0c-0.3-0.1-0.6-0.3-0.7-0.3c0,0,0,0-0.2,0c-0.2,0-0.2,0-0.2,0c-0.2-0.1-0.5-0.4-0.6-0.6c0,0,0,0-0.2-0.1
		c-0.2-0.1-0.2-0.1-0.2-0.1c-0.1-0.1-0.2-0.1-0.3-0.2c-0.1,0-0.2,0-0.3,0c-0.1,0-0.2,0.1-0.3,0.2s-0.2,0.2-0.2,0.3
		c0,0.1-0.1,0.2-0.2,0.3c-0.1,0.1-0.2,0.2-0.3,0.3c-0.1,0.1-0.2,0.3-0.3,0.4c-0.1,0.2-0.2,0.4-0.3,0.4c-0.1,0-0.2,0.3-0.3,0.5
		c0,0,0,0,0,0.1c0,0.1,0,0.1,0,0.1c0,0.2,0,0.5,0,0.7c0,0.2-0.2,0.7-0.3,1c-0.1,0.3-0.3,0.8-0.3,0.9c-0.1,0.2-0.1,0.4-0.1,0.5
		c0,0.1,0.1,0.3,0.2,0.4c0.1,0.1,0.2,0.2,0.2,0.3c0.1,0,0.2,0.1,0.3,0.1c0.1,0,0.2,0.1,0.2,0.1c0,0,0.1,0.1,0.1,0.2
		c0,0.1,0.1,0.2,0.1,0.3c0,0.1,0,0.2,0,0.4c0,0.1-0.1,0.3-0.1,0.5c0,0.1,0,0.3,0,0.4c0,0.1-0.1,0.5-0.2,0.8c0,0,0,0,0,0.1
		s0,0.1,0,0.1c0,0.4-0.1,0.8-0.2,1c-0.1,0.2-0.2,0.5-0.2,0.7c-0.1,0.2-0.1,0.4-0.2,0.5s-0.2,0.3-0.2,0.4c-0.1,0.1-0.2,0.3-0.2,0.4
		c-0.1,0.1-0.2,0.3-0.4,0.4c-0.1,0.1-0.3,0.2-0.4,0.1c-0.1-0.1-0.2-0.2-0.3-0.3c-0.1-0.1-0.1-0.3-0.1-0.5c0,0,0,0,0-0.1
		c0-0.1-0.1-0.4-0.1-0.5c0-0.1-0.1-0.9-0.1-1c0-0.1,0.1-0.4,0-0.6c0-0.1,0-0.1,0-0.1c0-0.2,0-0.5-0.1-0.6c0-0.2-0.1-0.4-0.1-0.6
		c0,0,0,0,0-0.1c0-0.1,0-0.1,0-0.1c0,0-0.1-0.2-0.1-0.4c0-0.2,0-0.6,0-0.8s0-0.6,0-0.7c0-0.1-0.1-0.2-0.1-0.3c0-0.1,0-0.2,0-0.4
		c0-0.1,0-0.4,0-0.7c0-0.3,0-0.6,0-0.8c0-0.2,0-0.5,0-0.7c0-0.2,0-0.4-0.1-0.6c0-0.1-0.1-0.3-0.1-0.3c-0.1-0.1-0.2-0.1-0.3,0
		c-0.1,0-0.3,0.1-0.4,0.2c-0.1,0.1-0.3,0.2-0.4,0.3c-0.1,0.1-0.3,0.2-0.3,0.3c-0.1,0.1-0.2,0.3-0.4,0.5c-0.1,0.1-0.4,0.4-0.5,0.6
		c-0.1,0.2-0.3,0.4-0.4,0.5c-0.1,0.1-0.2,0.2-0.3,0.3c-0.1,0.1-0.1,0.2-0.2,0.4c0,0.1-0.1,0.3-0.1,0.4c0,0-0.1,0.2-0.3,0.3
		c-0.1,0.1-0.3,0.3-0.3,0.4c-0.1,0.1-0.2,0.3-0.3,0.3c-0.1,0.1-0.2,0.2-0.2,0.2s0,0,0,0.1c0,0.1,0,0.1,0,0.1
		c0.1,0.1,0.2,0.3,0.3,0.4c0,0.1,0,0.4,0,0.6s0,0.4-0.1,0.5c0,0.1-0.1,0.3-0.1,0.5c0,0.2,0,0.4,0,0.5s0,0.2-0.1,0.2
		c0,0-0.1,0.1-0.1,0.3c0,0.1-0.1,0.3-0.1,0.3c0,0.1-0.1,0.2-0.1,0.3s-0.1,0.3-0.2,0.5c-0.1,0.2-0.2,0.4-0.3,0.4
		c-0.1,0.1-0.2,0-0.2-0.1c0-0.1-0.1-0.4-0.1-0.5s0-0.4,0-0.5c0-0.1,0-0.2,0-0.3c0-0.1,0-0.3,0-0.4c0-0.1,0-0.4,0-0.6
		c0-0.2,0-0.5,0-0.7c0-0.2,0-0.5-0.1-0.6c0-0.1,0-0.3,0-0.5c0-0.2,0-0.4,0-0.6c0-0.2-0.1-0.5-0.1-0.7c0-0.2,0-0.4,0-0.6
		c0-0.1,0.1-0.3,0.1-0.4s0-0.3,0-0.4c0-0.1,0-0.5,0-1c0-0.5,0-1.1,0-1.4c0-0.3,0-0.6-0.1-0.8c0-0.1-0.1-0.3-0.1-0.4
		c0-0.1,0-0.2-0.1-0.3c0-0.1-0.1-0.2-0.1-0.3c0-0.1-0.1-0.1-0.2-0.1c-0.1,0-0.2,0-0.2,0.1c0,0-0.2,0.2-0.3,0.3
		c-0.1,0.1-0.3,0.3-0.4,0.5c-0.1,0.2-0.4,0.6-0.7,0.9c0,0,0,0-0.1,0.1c-0.1,0.1-0.1,0.1-0.1,0.1c-0.2,0.2-0.4,0.4-0.5,0.6
		c-0.1,0.1-0.3,0.3-0.4,0.5c-0.1,0.1-0.2,0.3-0.1,0.4c0,0.1,0,0.3,0.1,0.5c0,0.2,0,0.5,0,0.7c0,0.2-0.1,0.4-0.1,0.6
		c0,0.1-0.1,0.6-0.2,0.9c-0.1,0.4-0.2,1-0.3,1.5c-0.1,0.5-0.3,1.2-0.5,1.7c-0.2,0.5-0.5,1.1-0.6,1.4c-0.2,0.3-0.5,0.8-0.7,1.1
		c-0.2,0.3-0.7,0.8-1,1.1c-0.3,0.3-0.9,0.8-1.2,1.1c-0.4,0.3-0.8,0.5-1.1,0.6s-0.9,0.3-1.6,0.5c0,0,0,0-0.2,0c-0.1,0-0.1,0-0.1,0
		c-0.4,0-0.9,0-1.2-0.1c-0.3-0.1-0.5-0.1-0.6-0.2c-0.1,0-0.3-0.1-0.5-0.2c-0.2-0.1-0.3-0.3-0.4-0.4c-0.1-0.2-0.1-0.4-0.1-0.5
		c0-0.1,0-0.3,0-0.4c0-0.1,0.1-0.3,0.1-0.5c0-0.1,0.1-0.3,0.2-0.4c0-0.1,0.2-0.2,0.3-0.2c0.1,0,0.3,0,0.4,0c0.1,0,0.3-0.1,0.4-0.1
		c0.1,0,0.3-0.1,0.5-0.2c0.1-0.1,0.4-0.2,0.5-0.2s0.3-0.1,0.5-0.2c0.1-0.1,0.3-0.2,0.4-0.2c0.1,0,0.2-0.2,0.3-0.3
		c0.1-0.1,0.2-0.2,0.2-0.3c0-0.1,0.1-0.1,0.1-0.2c0,0,0.1-0.1,0.1-0.1c0,0,0.1-0.1,0.1-0.1c0-0.1,0.1-0.1,0.1-0.1
		c0,0,0.1-0.1,0.2-0.2c0.1-0.1,0.2-0.3,0.3-0.4c0.1-0.1,0.2-0.2,0.2-0.2s0.1-0.1,0.1-0.2c0-0.1,0.1-0.3,0.2-0.4
		c0.1-0.1,0.1-0.2,0.2-0.3c0.1-0.1,0.2-0.3,0.2-0.4c0.1-0.1,0.2-0.3,0.2-0.4c0-0.1,0.1-0.3,0.1-0.4s0.1-0.3,0.1-0.4
		c0-0.1,0.1-0.3,0.1-0.4c0-0.1,0-0.3,0.1-0.4c0-0.1,0.1-0.4,0.1-0.5c0-0.1,0.1-0.3,0.1-0.4c0-0.1,0-0.3,0-0.5c0-0.2,0-0.5,0-0.8
		c0,0,0,0,0-0.1c0-0.1,0-0.1,0-0.1c0-0.1-0.1-0.2-0.1-0.3c0,0-0.1-0.1-0.1-0.1c0,0,0-0.1,0-0.2c0-0.1,0-0.2-0.1-0.2
		c0-0.1-0.1-0.1-0.2-0.2c-0.1,0-0.2-0.1-0.3-0.1c-0.1,0-0.3-0.1-0.4-0.1c-0.2,0-0.4,0-0.5,0c-0.1,0-0.3,0.1-0.5,0.1
		c-0.1,0.1-0.4,0.2-0.5,0.4c-0.1,0.1-0.3,0.3-0.4,0.3s-0.5,0.4-0.8,0.8c-0.4,0.4-0.8,0.8-0.9,1s-0.4,0.6-0.6,0.8
		c-0.2,0.3-0.5,0.7-0.7,1s-0.5,0.7-0.6,1c-0.1,0.3-0.3,0.8-0.4,1.1c-0.1,0.3-0.3,1-0.4,1.4c-0.1,0.4-0.3,0.9-0.3,1
		c0,0.1-0.1,0.5-0.1,0.7c0,0.3-0.1,0.8-0.1,1.2c0,0.4,0,0.9,0,1.1c0,0.2,0.1,0.6,0.2,0.8c0.1,0.2,0.3,0.6,0.4,0.8
		c0.1,0.2,0.4,0.6,0.5,0.8c0,0,0,0,0.2,0.1c0.2,0.1,0.2,0.1,0.4,0.2c0.2,0.1,0.2,0.1,0.2,0.1c0.2,0.1,0.5,0.3,0.8,0.2
		c0.3,0,0.7-0.1,1-0.1c0.3,0,0.7-0.2,1-0.3c0,0,0,0,0.1-0.1C121,48,121,48,121,48c0.3-0.1,0.7-0.3,1-0.5c0.2-0.2,0.8-0.5,1.1-0.8
		c0,0,0,0,0-0.1c0-0.1,0-0.1,0-0.1c0.3-0.3,0.8-0.6,1-0.9c0.2-0.2,0.6-0.6,0.8-0.8s0.6-0.5,0.7-0.6c0.1-0.1,0.3-0.4,0.4-0.5
		s0.3-0.4,0.4-0.6c0.1-0.2,0.3-0.4,0.4-0.5c0.1-0.1,0.3-0.4,0.4-0.6c0,0,0,0,0-0.1c0-0.1,0-0.1,0-0.1c0.2-0.2,0.4-0.4,0.4-0.4
		c0.1-0.1,0.2-0.2,0.2-0.3c0.1-0.1,0.1-0.2,0.1-0.3s0-0.1,0-0.2c0,0,0,0,0.1-0.2c0.1-0.2,0.1-0.2,0.1-0.2c0-0.1,0.2-0.4,0.2-0.7
		c0,0,0,0,0-0.1c0-0.1,0-0.1,0-0.1c0.1,0,0.2-0.1,0.3-0.1s0.1,0.2,0.1,0.4c0,0.2,0,0.5,0.1,0.7s0.1,0.6,0.2,0.9
		c0.1,0.3,0.2,0.7,0.2,0.9c0,0.2,0.1,0.5,0.1,0.6c0,0.2,0.1,0.7,0.2,1.1c0.1,0.4,0.4,1.3,0.7,1.8c0,0,0,0,0.1,0.1
		c0.1,0.1,0.1,0.1,0.1,0.1c0,0.1,0.1,0.2,0.2,0.3c0,0.1,0.1,0.2,0.2,0.3c0.1,0.1,0.2,0.2,0.3,0.2s0.2,0,0.3-0.1s0.2-0.1,0.3-0.2
		c0-0.1,0.1-0.3,0.2-0.4c0,0,0,0,0-0.1c0-0.1,0.1-0.4,0.2-0.5c0.1-0.1,0.1-0.1,0.1-0.1c0.1-0.1,0.2-0.3,0.2-0.4c0,0,0,0,0-0.1
		c0-0.1,0-0.1,0-0.1c0.2-0.2,0.6-0.7,0.8-1c0,0,0,0,0.1-0.1c0.1-0.1,0.1-0.3,0.2-0.4c0.1-0.1,0.2-0.3,0.2-0.4c0-0.1,0.2-0.4,0.3-0.6
		c0.1-0.1,0.1-0.1,0.1-0.1c0.1-0.1,0.2-0.2,0.2-0.2s0.1,0.2,0.2,0.3c0.1,0.1,0.3,0.7,0.4,1.2c0,0,0,0,0,0.1c0,0.1,0,0.1,0,0.1
		c0.1,0.4,0.2,0.7,0.4,0.8c0.1,0.1,0.2,0.2,0.2,0.3c0,0.1,0,0.2,0.1,0.3c0.1,0.1,0.2,0.3,0.2,0.4c0.1,0.1,0.2,0.4,0.3,0.5
		c0.1,0.1,0.3,0.4,0.4,0.6c0.1,0.2,0.3,0.4,0.4,0.4s0.4,0,0.6,0c0,0,0,0,0.1-0.1c0.1-0.1,0.1-0.1,0.1-0.1c0.1-0.1,0.3-0.3,0.3-0.4
		c0.1-0.1,0.1-0.2,0.2-0.3c0-0.1,0.1-0.3,0.2-0.4c0,0,0,0,0.1-0.1c0.1-0.1,0.4-0.4,0.4-0.5c0-0.1,0.3-0.3,0.3-0.4s0-0.1,0-0.1
		c0.1-0.1,0.3-0.2,0.3-0.3c0.1-0.1,0.3-0.3,0.4-0.4c0.1-0.2,0.4-0.5,0.5-0.7c0.2-0.2,0.5-0.7,0.7-1c0,0,0,0,0.1-0.1
		c0.1-0.1,0.1-0.1,0.1-0.1c0.2-0.3,0.5-0.9,0.8-1.3c0,0,0,0,0-0.1c0-0.1,0-0.1,0-0.1c0.1-0.2,0.1-0.5,0.1-0.6c0-0.1,0-0.3,0.1-0.5
		c0,0,0,0,0-0.1c0-0.1,0-0.1,0-0.1c0-0.2,0.2-0.9,0.2-1.7c0,0,0,0,0-0.1s0-0.1,0-0.1c0.1-0.4,0.2-1.1,0.3-1.4c0,0,0,0,0.1,0
		c0.1,0,0.9,0.2,1,0.3c0.1,0,0.1,0,0.1,0c0.3,0,0.6,0.1,0.8,0.1c0.2,0,0.4,0.1,0.6,0.1c0.2,0,0.5,0,0.7,0c0.2,0,0.6,0.1,0.8,0.1
		c0.2,0.1,0.6,0.2,0.8,0.2s0.5,0.1,0.7,0.1c0.2,0,0.8,0,1.1,0c0.3,0,0.9,0.1,1.4,0.2c0,0,0,0,0.1,0c0.1,0,0.1,0,0.1,0
		c0.1,0.2,0.2,0.4,0.3,0.5c0.1,0,0.4,0,0.8-0.2c0,0,0,0,0.1-0.1c0.1-0.1,0.4-0.1,0.5-0.1c0.1,0,0.1,0,0.1,0c0.2-0.1,0.5-0.3,0.6-0.3
		c0.1,0,0.4-0.1,0.8-0.2c0.3-0.1,0.3-0.1-0.1-0.1C154.5,36.3,154.5,36.3,154.1,36.3z M118.9,39.4c0-0.1,0-0.2,0.1-0.2
		c0,0,0.1-0.1,0.1-0.2c0-0.1,0.1-0.2,0.1-0.2c0,0,0.1-0.1,0.1-0.1c0,0,0.1-0.1,0.1-0.2c0.1,0,0.2-0.1,0.2-0.2s0.1-0.2,0.1-0.2
		c0,0,0.1-0.1,0.1-0.2c0-0.1,0.1-0.2,0.1-0.2c0.1-0.1,0.1-0.2,0.2-0.2s0.1-0.2,0.2-0.2c0.1-0.1,0.2-0.2,0.3-0.2
		c0.1,0,0.1-0.1,0.1-0.1c0,0,0.1-0.1,0.2-0.1s0.3-0.1,0.4-0.1c0.1,0,0.3-0.1,0.4-0.1c0.1,0,0.2,0,0.2,0.1c0,0,0.1,0.1,0.1,0.1
		c0,0.1,0,0.2,0,0.2c0,0.1,0,0.2-0.1,0.3c0,0.1,0,0.2-0.1,0.3c0,0.1-0.1,0.2-0.1,0.3c0,0.1,0,0.1,0,0.2c0,0.1-0.1,0.2-0.1,0.3
		c0,0.1-0.1,0.2-0.1,0.3c0,0.1-0.1,0.1-0.1,0.2c0,0,0,0.2-0.1,0.3s0,0.2-0.1,0.3c0,0,0,0.1-0.1,0.2c0,0-0.1,0.1-0.1,0.2
		c0,0.1-0.1,0.2-0.1,0.2c0,0-0.1,0.1-0.1,0.2c0,0.1-0.1,0.2-0.1,0.2c0,0-0.1,0.1-0.2,0.2s-0.1,0.1-0.2,0.2c-0.1,0.1-0.2,0.1-0.2,0.1
		s-0.2,0-0.2,0c-0.1,0-0.2,0-0.2,0c0,0-0.1,0-0.2,0c-0.1,0-0.2,0-0.3-0.1c-0.1,0-0.2-0.1-0.2-0.2c-0.1,0-0.2-0.2-0.2-0.3
		s-0.1-0.2-0.2-0.3c0,0,0-0.1-0.1-0.1c0,0,0-0.1,0-0.1C118.9,39.5,118.9,39.4,118.9,39.4z"/>
</g>
</svg>
