<?xml version="1.0" encoding="utf-8"?>
<!-- Generator: Adobe Illustrator 17.1.0, SVG Export Plug-In . SVG Version: 6.00 Build 0)  -->
<!DOCTYPE svg PUBLIC "-//W3C//DTD SVG 1.1//EN" "http://www.w3.org/Graphics/SVG/1.1/DTD/svg11.dtd">
<svg version="1.1" id="Layer_1" xmlns="http://www.w3.org/2000/svg" xmlns:xlink="http://www.w3.org/1999/xlink" x="0px" y="0px"
	 viewBox="0 0 190 100" enable-background="new 0 0 190 100" xml:space="preserve">
<g>
	<g>
		<g>
			<defs>
				<rect id="SVGID_1_" x="15" y="39.7" width="160" height="20.7"/>
			</defs>
			<clipPath id="SVGID_2_">
				<use xlink:href="#SVGID_1_"  overflow="visible"/>
			</clipPath>
			<path clip-path="url(#SVGID_2_)" fill="#212121" d="M42.4,55.1v-3.3c-0.4-0.2-1-0.5-1.4-0.7l-3.1,3.3l0,0c0.5-0.3,1.1-0.5,2-0.5
				C40.9,53.9,41.9,54.6,42.4,55.1L42.4,55.1z M45.5,53.8c-1.6,0.7-3.9,2-5,3c-0.6-0.6-1.3-1.1-2.3-1.1c-0.9,0-1.3,0.3-1.3,0.7
				c0,0.2,0.4,0.2,0.4,0.5c0,0.1-0.1,0.3-0.3,0.3c-0.2,0-0.4-0.3-0.4-0.7c0-0.7,0.3-1.4,1.5-2.6l2-2.1c-0.8-0.4-2.1-1-2.7-1.3v-0.1
				c0.2-0.1,0.3-0.3,0.3-0.5V48c0-0.2-0.1-0.5-0.3-0.6v-0.1c1.7-0.6,3.9-1.9,5.1-2.7c0.3,0.3,1,1,1.8,1c0.7,0,0.8-0.3,0.8-0.6
				c0-0.1-0.2-0.2-0.2-0.4c0-0.2,0.1-0.2,0.2-0.2c0.2,0,0.4,0.2,0.4,0.6c0,1.1-1.1,2.5-2.7,2.5c-1.1,0-1.7-0.5-2.3-1.2l0,0V49
				l1.5,0.7l0.7-0.7c0.7,0.5,2.2,1.2,2.9,1.6v0.1c-0.2,0.1-0.3,0.2-0.3,0.6v2C45.2,53.5,45.4,53.7,45.5,53.8
				C45.5,53.8,45.5,53.8,45.5,53.8z"/>
		</g>
	</g>
	<g>
		<g>
			<defs>
				<rect id="SVGID_3_" x="15" y="39.7" width="160" height="20.7"/>
			</defs>
			<clipPath id="SVGID_4_">
				<use xlink:href="#SVGID_3_"  overflow="visible"/>
			</clipPath>
			<path clip-path="url(#SVGID_4_)" fill="#212121" d="M33.1,55.2v-6.8c-0.9-0.5-2.3-1.5-3-2.1l0,0v6.9C31,53.7,32.3,54.6,33.1,55.2
				L33.1,55.2z M36.2,53.8c-1.4,0.6-4,2-5.1,3c-1.2-0.9-2.9-2.1-4.1-2.7v-0.1c0.3-0.1,0.4-0.3,0.4-0.7v-5.2c0-0.5-0.1-0.7-0.4-0.7
				v-0.1c1.9-0.7,3.6-1.7,5.1-2.7c1,0.8,2.8,1.9,4,2.7v0.1c-0.2,0.1-0.4,0.3-0.4,0.7v5.2C35.8,53.6,36,53.7,36.2,53.8L36.2,53.8z"/>
		</g>
	</g>
	<g>
		<g>
			<defs>
				<rect id="SVGID_5_" x="15" y="39.7" width="160" height="20.7"/>
			</defs>
			<clipPath id="SVGID_6_">
				<use xlink:href="#SVGID_5_"  overflow="visible"/>
			</clipPath>
			<path clip-path="url(#SVGID_6_)" fill="#212121" d="M22.1,53.2v-9.8c-1.3-0.2-2.1-1.1-2.6-1.6l-1.3,1.1c0,1.5,0.4,2.7,0.9,3.9
				c0.5,1.1,1,2.5,1,3.4c0,1.6-0.9,2.6-2.9,4.5l0.1,0.1C18.5,53.9,20.5,53.3,22.1,53.2 M26.8,53.4L25,56.9c-1-0.7-2.7-1.2-4.1-1.2
				c-2.8,0-4.7,0.5-5.7,1.2L15,56.7c0.9-0.8,2.4-2.1,2.4-4.9c0-1.2-0.5-2.6-0.8-3.5c-0.4-1.1-0.7-1.6-0.7-3c0-2.6,1.3-4,3.5-5.1
				l0.2,0.2c-0.7,0.6-1.1,1.4-1.2,2.2l3.4-2.9c0.9,1.2,1.7,1.7,2.8,1.7c0.9,0,1.1-0.4,1.1-0.7c0-0.2-0.3-0.3-0.3-0.5
				c0-0.2,0.1-0.3,0.3-0.3c0.3,0,0.3,0.4,0.3,0.6c0,1.7-1.4,2.9-2.9,2.9c-0.3,0-0.5,0-0.7,0v9.8c1.2,0,2.7,0.4,3.8,0.9l0.5-0.8
				L26.8,53.4z"/>
		</g>
	</g>
	<g>
		<g>
			<defs>
				<rect id="SVGID_7_" x="15" y="39.7" width="160" height="20.7"/>
			</defs>
			<clipPath id="SVGID_8_">
				<use xlink:href="#SVGID_7_"  overflow="visible"/>
			</clipPath>
			<path clip-path="url(#SVGID_8_)" fill="#212121" d="M113.3,55.1v-3.3c-0.4-0.2-1-0.5-1.4-0.7l-3.1,3.3l0,0c0.5-0.3,1.1-0.5,2-0.5
				C111.8,53.9,112.8,54.6,113.3,55.1L113.3,55.1z M116.4,53.8c-1.6,0.7-3.9,2-5,3c-0.6-0.6-1.3-1.1-2.3-1.1c-0.9,0-1.3,0.3-1.3,0.7
				c0,0.2,0.4,0.2,0.4,0.5c0,0.1-0.1,0.3-0.3,0.3c-0.2,0-0.4-0.3-0.4-0.7c0-0.7,0.3-1.4,1.5-2.6l2-2.1c-0.8-0.4-2.1-1-2.7-1.3v-0.1
				c0.2-0.1,0.3-0.3,0.3-0.5V48c0-0.2-0.1-0.5-0.3-0.6v-0.1c1.7-0.6,3.9-1.9,5.1-2.7c0.3,0.3,1,1,1.8,1c0.7,0,0.8-0.3,0.8-0.6
				c0-0.1-0.2-0.2-0.2-0.4c0-0.2,0.1-0.2,0.2-0.2c0.2,0,0.4,0.2,0.4,0.6c0,1.1-1.1,2.5-2.7,2.5c-1.1,0-1.7-0.5-2.3-1.2l0,0V49
				l1.5,0.7l0.7-0.7c0.7,0.5,2.2,1.2,2.9,1.6v0.1c-0.2,0.1-0.3,0.2-0.3,0.6v2C116.1,53.5,116.3,53.7,116.4,53.8L116.4,53.8z"/>
		</g>
	</g>
	<g>
		<g>
			<defs>
				<rect id="SVGID_9_" x="15" y="39.7" width="160" height="20.7"/>
			</defs>
			<clipPath id="SVGID_10_">
				<use xlink:href="#SVGID_9_"  overflow="visible"/>
			</clipPath>
			<path clip-path="url(#SVGID_10_)" fill="#212121" d="M105,49.7c-0.6-0.8-1.7-2.3-2.3-3.3l-0.1,0v4.8L105,49.7z M107.5,48.4
				l-4.8,3v2.1c0.6,0.3,2,1,2.7,1.4l1-1.1c0.3-0.3,0.2-0.8,0.6-0.8c0.1,0,0.2,0.1,0.2,0.2c0,0.2-0.1,0.3-0.2,0.4l-3.1,3.2
				c-1.1-0.7-3.2-1.7-4.3-2.2v-0.1c0.2-0.1,0.4-0.2,0.4-0.6v-5.8c0-0.5-0.2-0.6-0.4-0.7v-0.1c1.6-0.5,4.1-1.9,5.3-2.7
				C105.7,45.9,106.7,47.4,107.5,48.4"/>
		</g>
	</g>
	<g>
		<g>
			<defs>
				<rect id="SVGID_11_" x="15" y="39.7" width="160" height="20.7"/>
			</defs>
			<clipPath id="SVGID_12_">
				<use xlink:href="#SVGID_11_"  overflow="visible"/>
			</clipPath>
			<path clip-path="url(#SVGID_12_)" fill="#212121" d="M91.3,49.7c-0.6-0.8-1.7-2.3-2.3-3.3l-0.1,0v4.8L91.3,49.7z M93.8,48.4
				l-4.8,3v2.1c0.6,0.3,2,1,2.7,1.4l1-1.1c0.3-0.3,0.2-0.8,0.6-0.8c0.1,0,0.2,0.1,0.2,0.2c0,0.2-0.1,0.3-0.2,0.4l-3.1,3.2
				c-1.1-0.7-3.2-1.7-4.3-2.2v-0.1c0.2-0.1,0.4-0.2,0.4-0.6v-5.8c0-0.5-0.2-0.6-0.4-0.7v-0.1c1.6-0.5,4.1-1.9,5.3-2.7
				C92,45.9,93,47.4,93.8,48.4"/>
		</g>
	</g>
	<g>
		<g>
			<defs>
				<rect id="SVGID_13_" x="15" y="39.7" width="160" height="20.7"/>
			</defs>
			<clipPath id="SVGID_14_">
				<use xlink:href="#SVGID_13_"  overflow="visible"/>
			</clipPath>
			<path clip-path="url(#SVGID_14_)" fill="#212121" d="M81.4,55v-6.6c-0.8-0.5-2.1-1.4-3-2.1l0,0v7.2c0.8,0.4,2.2,1.2,2.8,1.7
				L81.4,55z M85.2,55.9c-0.1,2.6-2.3,4.4-4.7,4.4c-1.9,0-2.3-1-4-1c-1,0-2.5,0.3-2.8,0.7l-0.1-0.1c0.1-1.9,2.4-2.9,4-2.9
				c1.9,0,3.2,1.2,5.2,1.2c1.3,0,1.9-0.7,2-1.4l0,0c-0.3,0.2-0.6,0.4-1.1,0.4c-1,0-2.1-0.7-2.3-2c-0.5,0.3-1.6,1.2-2,1.6
				c-1.2-0.8-3.1-1.8-4-2.2v-0.1c0.2-0.1,0.3-0.3,0.3-0.6v-5.9c0-0.4-0.1-0.6-0.4-0.7v-0.1c1.7-0.6,3.9-1.8,5.1-2.8
				c1,0.8,2.9,2,4,2.7v0.1c-0.2,0.1-0.4,0.3-0.4,0.8v6.4c0,0.8,0.1,1.4,0.6,1.4c0.1,0,0.2-0.1,0.3-0.2L85.2,55.9z"/>
		</g>
	</g>
	<g>
		<g>
			<defs>
				<rect id="SVGID_15_" x="15" y="39.7" width="160" height="20.7"/>
			</defs>
			<clipPath id="SVGID_16_">
				<use xlink:href="#SVGID_15_"  overflow="visible"/>
			</clipPath>
			<path clip-path="url(#SVGID_16_)" fill="#212121" d="M57.9,50.1l-2.1-6.5l-2.3,6.5H57.9z M63.9,54.4l-2.6,2.4
				c-0.8-0.6-1.4-1-2.4-1.6v-0.1c0.2-0.1,0.3-0.3,0.3-0.6c0-0.1,0-0.2-0.1-0.4l-0.8-2.5H53l-0.7,2.1c1.1,0,1.9,0.2,2.4,0.5l0.4-0.8
				l0.3,0.1l-1.8,3.3c-0.7-0.4-1.6-0.8-2.5-0.8c-1.1,0-1.9,0.3-2.4,0.7c-0.1,0.1-0.2,0-0.2-0.1c0.5-1.5,1.7-2.8,3.4-2.9l3.8-10.6
				c-0.4-1.3-1-1.6-1.9-1.6c-0.9,0-1.8,0.4-1.8,1.5c0,0.5,0.5,0.5,0.5,0.8c0,0.1-0.1,0.3-0.3,0.3c-0.3,0-0.5-0.5-0.5-1.3
				c0-2,1.5-3,3.1-3c1.5,0,2.1,0.5,2.5,1.1c0.2-0.5,0.7-0.9,1.1-0.9l0.1,0.1c-0.3,0.3-0.4,0.6-0.4,1.1c0,0.2,0.2,0.7,0.2,0.9
				l4.1,12.1l0.8,0.5l0.6-0.5L63.9,54.4z"/>
		</g>
	</g>
	<g>
		<g>
			<defs>
				<rect id="SVGID_17_" x="15" y="39.7" width="160" height="20.7"/>
			</defs>
			<clipPath id="SVGID_18_">
				<use xlink:href="#SVGID_17_"  overflow="visible"/>
			</clipPath>
			<path clip-path="url(#SVGID_18_)" fill="#212121" d="M171.9,55.1v-3.3c-0.4-0.2-1-0.5-1.4-0.7l-3.1,3.3l0,0
				c0.5-0.3,1.1-0.5,2-0.5C170.4,53.9,171.4,54.6,171.9,55.1L171.9,55.1z M175,53.8c-1.6,0.7-3.9,2-5,3c-0.6-0.6-1.3-1.1-2.3-1.1
				c-0.9,0-1.3,0.3-1.3,0.7c0,0.2,0.4,0.2,0.4,0.5c0,0.1-0.1,0.3-0.3,0.3c-0.2,0-0.4-0.3-0.4-0.7c0-0.7,0.3-1.4,1.5-2.6l2-2.1
				c-0.8-0.4-2.1-1-2.7-1.3v-0.1c0.2-0.1,0.3-0.3,0.3-0.5V48c0-0.2-0.1-0.5-0.3-0.6v-0.1c1.7-0.6,3.9-1.9,5.1-2.7c0.3,0.3,1,1,1.8,1
				c0.7,0,0.8-0.3,0.8-0.6c0-0.1-0.2-0.2-0.2-0.4c0-0.2,0.1-0.2,0.2-0.2c0.2,0,0.4,0.2,0.4,0.6c0,1.1-1.1,2.5-2.7,2.5
				c-1.1,0-1.7-0.5-2.2-1.2l0,0V49l1.5,0.7l0.7-0.7c0.7,0.5,2.2,1.2,2.9,1.6v0.1c-0.2,0.1-0.3,0.2-0.3,0.6v2
				C174.7,53.5,174.9,53.7,175,53.8L175,53.8L175,53.8z"/>
		</g>
	</g>
	<g>
		<g>
			<defs>
				<rect id="SVGID_19_" x="15" y="39.7" width="160" height="20.7"/>
			</defs>
			<clipPath id="SVGID_20_">
				<use xlink:href="#SVGID_19_"  overflow="visible"/>
			</clipPath>
			<path clip-path="url(#SVGID_20_)" fill="#212121" d="M163.6,49.7c-0.6-0.8-1.7-2.3-2.3-3.3l-0.1,0v4.8L163.6,49.7z M166.1,48.4
				l-4.8,3v2.1c0.6,0.3,2,1,2.7,1.4l1-1.1c0.3-0.3,0.2-0.8,0.6-0.8c0.1,0,0.2,0.1,0.2,0.2c0,0.2-0.1,0.3-0.2,0.4l-3.1,3.2
				c-1.1-0.7-3.2-1.7-4.3-2.2v-0.1c0.2-0.1,0.4-0.2,0.4-0.6v-5.8c0-0.5-0.2-0.6-0.4-0.7v-0.1c1.6-0.5,4.1-1.9,5.3-2.7
				C164.3,45.9,165.3,47.4,166.1,48.4"/>
		</g>
	</g>
	<g>
		<g>
			<defs>
				<rect id="SVGID_21_" x="15" y="39.7" width="160" height="20.7"/>
			</defs>
			<clipPath id="SVGID_22_">
				<use xlink:href="#SVGID_21_"  overflow="visible"/>
			</clipPath>
			<path clip-path="url(#SVGID_22_)" fill="#212121" d="M132.7,54.5V44c-0.1,0-0.3,0-0.5,0c-0.7,0-1.9-0.3-2.7-0.5
				c-2.4,0.4-5.1,2.4-5.1,6.2c0,3.3,2.3,5.3,5.5,5.3C131,55.1,132,54.9,132.7,54.5 M135.5,41.2c0,1.7-1.3,2.5-2.6,2.8v10.4
				c1.6-0.9,2.2-2,2.2-2.4c0-0.1-0.2-0.2-0.2-0.4c0-0.1,0.1-0.3,0.2-0.3c0.2,0,0.3,0.2,0.3,0.5c0,2.4-2.3,5.7-7.1,5.7
				c-3.6,0-6.7-2.9-6.7-6.6c0-5.3,4.4-7.1,7.4-7.3c-1.1-0.2-2.9-0.6-4.4-0.6c-1.7,0-3.1,1-3.1,2c0,0.4,0.3,0.4,0.3,0.7
				c0,0.1-0.1,0.3-0.2,0.3c-0.3,0-0.3-0.3-0.3-0.5c0-2,1.2-5,4.2-5c3,0,5.3,1.1,7.7,1.1c1.6,0,2-0.5,2-1.4l0.3,0.1
				C135.4,40.1,135.5,40.6,135.5,41.2"/>
		</g>
	</g>
	<g>
		<g>
			<defs>
				<rect id="SVGID_23_" x="15" y="39.7" width="160" height="20.7"/>
			</defs>
			<clipPath id="SVGID_24_">
				<use xlink:href="#SVGID_23_"  overflow="visible"/>
			</clipPath>
			<path clip-path="url(#SVGID_24_)" fill="#212121" d="M158,54.6c-0.6,0.6-1.9,1.7-2.5,2.3c-0.6-0.5-1.7-1.5-2.5-2v-0.1
				c0.2-0.1,0.4-0.3,0.4-0.8v-5.7c-0.6-0.4-1.7-1.2-2.4-1.6l-0.4,0.4v7.2l1,0.7c0,0-1.4,1.2-2,1.8c-0.5-0.5-1.4-1.2-2.1-1.7V55
				c0.2-0.1,0.4-0.3,0.4-0.8v-6c-0.6-0.4-1.7-1.2-2.4-1.6l-0.5,0.5v7.1l1,0.7c0,0-1.3,1.1-2,1.8c-0.6-0.6-1.3-1.1-2.1-1.7v-0.1
				c0.2-0.1,0.4-0.4,0.4-0.7v-6.9l-0.9-0.8l-0.5,0.5l-0.2-0.2c0.6-0.5,1.6-1.4,2.5-2.3l1.8,1.7v0.5l2.5-2.2c0.8,0.6,3.1,2.1,3.1,2.1
				l2.4-2.1c0.8,0.6,2.5,1.7,3.5,2.3V47c-0.3,0.1-0.4,0.5-0.4,0.7V54l1.1,0.8l0.5-0.5L158,54.6z"/>
		</g>
	</g>
	<g>
		<g>
			<defs>
				<rect id="SVGID_25_" x="15" y="39.7" width="160" height="20.7"/>
			</defs>
			<clipPath id="SVGID_26_">
				<use xlink:href="#SVGID_25_"  overflow="visible"/>
			</clipPath>
			<path clip-path="url(#SVGID_26_)" fill="#212121" d="M140.7,42.4c-0.6,0.9-1.2,1.4-2.2,1.4c-0.7,0-1.2-0.4-1.8-1.1l-0.5,0.5
				l-0.2-0.2l2.5-2.2C139.1,42.1,140,42.3,140.7,42.4L140.7,42.4z"/>
		</g>
	</g>
	<g>
		<g>
			<defs>
				<rect id="SVGID_27_" x="15" y="39.7" width="160" height="20.7"/>
			</defs>
			<clipPath id="SVGID_28_">
				<use xlink:href="#SVGID_27_"  overflow="visible"/>
			</clipPath>
			<path clip-path="url(#SVGID_28_)" fill="#212121" d="M141.3,54.6c-0.7,0.6-1.8,1.6-2.5,2.3c-0.6-0.6-1.6-1.4-2.5-2v-0.1
				c0.2-0.1,0.4-0.4,0.4-0.7v-6.6l-0.9-0.8l-0.5,0.5l-0.2-0.2c0.6-0.5,1.6-1.4,2.5-2.3l2.2,2v0.1c-0.3,0.1-0.4,0.3-0.4,0.9V54
				l1.1,0.8l0.5-0.5L141.3,54.6z"/>
		</g>
	</g>
	<g>
		<g>
			<defs>
				<rect id="SVGID_29_" x="15" y="39.7" width="160" height="20.7"/>
			</defs>
			<clipPath id="SVGID_30_">
				<use xlink:href="#SVGID_29_"  overflow="visible"/>
			</clipPath>
			<path clip-path="url(#SVGID_30_)" fill="#212121" d="M99.1,54.6c-0.7,0.6-1.8,1.6-2.5,2.3c-0.6-0.6-1.6-1.4-2.5-2v-0.1
				c0.2-0.1,0.4-0.4,0.4-0.7V43.4l-0.9-0.8l-0.5,0.5l-0.2-0.2c0.6-0.5,1.5-1.4,2.4-2.3l2.4,2v0.1c-0.3,0.1-0.4,0.3-0.4,0.9V54
				l1.1,0.8l0.5-0.5L99.1,54.6z"/>
		</g>
	</g>
	<g>
		<g>
			<defs>
				<rect id="SVGID_31_" x="15" y="39.7" width="160" height="20.7"/>
			</defs>
			<clipPath id="SVGID_32_">
				<use xlink:href="#SVGID_31_"  overflow="visible"/>
			</clipPath>
			<path clip-path="url(#SVGID_32_)" fill="#212121" d="M74.8,54.6c-0.6,0.6-1.9,1.7-2.5,2.3c-0.6-0.5-1.7-1.5-2.5-2v-0.1
				c0.2-0.1,0.4-0.3,0.4-0.8v-5.7c-0.6-0.4-1.7-1.2-2.4-1.6l-0.5,0.5v7.1l1,0.7c0,0-1.3,1.1-2,1.8c-0.6-0.6-1.3-1.1-2.1-1.7v-0.1
				c0.2-0.1,0.4-0.4,0.4-0.7v-6.9l-0.9-0.8l-0.5,0.5L63,46.9c0.6-0.5,1.6-1.4,2.5-2.3l1.8,1.7v0.5l2.5-2.2c0.8,0.6,2.5,1.7,3.5,2.3
				V47C73,47.1,73,47.6,73,47.8V54l1.1,0.8l0.5-0.5L74.8,54.6z"/>
		</g>
	</g>
</g>
</svg>
