<?xml version="1.0" encoding="utf-8"?>
<!-- Generator: Adobe Illustrator 17.1.0, SVG Export Plug-In . SVG Version: 6.00 Build 0)  -->
<!DOCTYPE svg PUBLIC "-//W3C//DTD SVG 1.1//EN" "http://www.w3.org/Graphics/SVG/1.1/DTD/svg11.dtd">
<svg version="1.1" id="Layer_1" xmlns="http://www.w3.org/2000/svg" xmlns:xlink="http://www.w3.org/1999/xlink" x="0px" y="0px"
	 viewBox="0 0 190 100" enable-background="new 0 0 190 100" xml:space="preserve">
<g>
	<polygon fill="#212121" points="46.1,38.8 41.6,50.9 37,38.8 29.2,38.8 29.2,60.8 34.8,60.8 34.8,46.3 40.3,60.8 42.8,60.8 
		48.3,46.3 48.3,60.8 53.9,60.8 53.9,38.8 	"/>
	<g>
		<g>
			<defs>
				<rect id="SVGID_1_" x="29.2" y="38.8" width="131.6" height="22.4"/>
			</defs>
			<clipPath id="SVGID_2_">
				<use xlink:href="#SVGID_1_"  overflow="visible"/>
			</clipPath>
			<path clip-path="url(#SVGID_2_)" fill="#212121" d="M62.7,57.9c-1.3,0-2.5-0.6-2.5-1.8c0-1.3,1.2-1.8,2.5-1.8
				c1.1,0,2.3,0.4,2.8,1.1v1.4C65,57.5,63.8,57.9,62.7,57.9 M70.5,60.8v-9.9c0-4.9-3.6-6.4-7.3-6.4c-2.4,0-5.1,0.7-7.1,2.5l1.9,3.5
				c1.3-1.1,2.8-1.7,4.4-1.7c2,0,3.2,1,3.2,2.3v1.6c-0.9-1.2-2.8-1.9-4.9-1.9c-2.4,0-5.4,1.3-5.4,5.1c0,3.6,3,5.2,5.4,5.2
				c2,0,3.9-0.8,4.9-2v1.6C65.5,60.8,70.5,60.8,70.5,60.8z"/>
		</g>
		<g>
			<defs>
				<rect id="SVGID_3_" x="29.2" y="38.8" width="131.6" height="22.4"/>
			</defs>
			<clipPath id="SVGID_4_">
				<use xlink:href="#SVGID_3_"  overflow="visible"/>
			</clipPath>
			<path clip-path="url(#SVGID_4_)" fill="#212121" d="M78.6,61.2c4.5,0,7.1-2.2,7.1-5.2c0-6.5-9.1-4.7-9.1-6.5c0-0.6,0.8-1.1,2-1.1
				c1.9,0,3.7,0.8,4.6,1.7l1.9-3.6c-1.7-1.3-3.9-2.1-6.6-2.1c-4.3,0-6.8,2.4-6.8,5.2c0,6.5,9.2,4.4,9.2,6.4c0,0.7-0.6,1.1-2.1,1.1
				c-1.9,0-4.4-1.1-5.5-2.1l-2.1,3.6C72.8,60.2,75.7,61.2,78.6,61.2"/>
		</g>
		<g>
			<defs>
				<rect id="SVGID_5_" x="29.2" y="38.8" width="131.6" height="22.4"/>
			</defs>
			<clipPath id="SVGID_6_">
				<use xlink:href="#SVGID_5_"  overflow="visible"/>
			</clipPath>
			<path clip-path="url(#SVGID_6_)" fill="#212121" d="M102.4,60.8V49.5c0-2.9-1.6-5-5.2-5c-2.6,0-4.5,1.2-5.4,2.3v-8h-5v22h5V50.5
				c0.6-0.7,1.6-1.5,3-1.5c1.6,0,2.6,0.6,2.6,2.6v9.3H102.4z"/>
		</g>
		<g>
			<defs>
				<rect id="SVGID_7_" x="29.2" y="38.8" width="131.6" height="22.4"/>
			</defs>
			<clipPath id="SVGID_8_">
				<use xlink:href="#SVGID_7_"  overflow="visible"/>
			</clipPath>
			<path clip-path="url(#SVGID_8_)" fill="#212121" d="M110.9,57.9c-1.3,0-2.5-0.6-2.5-1.8c0-1.3,1.2-1.8,2.5-1.8
				c1.1,0,2.3,0.4,2.8,1.1v1.4C113.2,57.5,112,57.9,110.9,57.9 M118.7,60.8v-9.9c0-4.9-3.6-6.4-7.3-6.4c-2.4,0-5.1,0.7-7.1,2.5
				l1.9,3.5c1.3-1.1,2.8-1.7,4.4-1.7c2,0,3.2,1,3.2,2.3v1.6c-0.9-1.2-2.8-1.9-4.9-1.9c-2.4,0-5.4,1.3-5.4,5.1c0,3.6,3,5.2,5.4,5.2
				c2,0,3.9-0.8,4.9-2v1.6C113.7,60.8,118.7,60.8,118.7,60.8z"/>
		</g>
		<g>
			<defs>
				<rect id="SVGID_9_" x="29.2" y="38.8" width="131.6" height="22.4"/>
			</defs>
			<clipPath id="SVGID_10_">
				<use xlink:href="#SVGID_9_"  overflow="visible"/>
			</clipPath>
			<path clip-path="url(#SVGID_10_)" fill="#212121" d="M125.6,60.8v-1.8c1.3,1.5,2.9,2.2,4.7,2.2c3.9,0,6.9-3,6.9-8.4
				c0-5.2-3-8.3-6.9-8.3c-1.7,0-3.4,0.7-4.7,2.3v-7.9h-5v22H125.6z M125.6,55.3v-4.9c0.6-0.9,1.9-1.4,3-1.4c2,0,3.5,1.5,3.5,3.9
				c0,2.4-1.5,3.9-3.5,3.9C127.6,56.7,126.3,56.1,125.6,55.3"/>
		</g>
	</g>
	<rect x="138.4" y="38.8" fill="#212121" width="5" height="22"/>
	<g>
		<g>
			<defs>
				<rect id="SVGID_11_" x="29.2" y="38.8" width="131.6" height="22.4"/>
			</defs>
			<clipPath id="SVGID_12_">
				<use xlink:href="#SVGID_11_"  overflow="visible"/>
			</clipPath>
			<path clip-path="url(#SVGID_12_)" fill="#212121" d="M156,51h-6.5c0.2-1.2,1-2.5,3.2-2.5C155,48.6,155.9,49.9,156,51 M153,61.2
				c2.4,0,5-0.7,6.6-2.1l-2.2-3.3c-0.9,0.9-2.7,1.3-3.8,1.3c-2.3,0-3.6-1.2-3.9-2.6h11.2v-1.2c0-5.4-3.4-8.9-8.1-8.9
				c-4.9,0-8.4,3.7-8.4,8.3C144.4,58,148.1,61.2,153,61.2"/>
		</g>
	</g>
</g>
</svg>
