<?xml version="1.0" encoding="utf-8"?>
<!-- Generator: Adobe Illustrator 17.1.0, SVG Export Plug-In . SVG Version: 6.00 Build 0)  -->
<!DOCTYPE svg PUBLIC "-//W3C//DTD SVG 1.1//EN" "http://www.w3.org/Graphics/SVG/1.1/DTD/svg11.dtd">
<svg version="1.1" id="Layer_1" xmlns="http://www.w3.org/2000/svg" xmlns:xlink="http://www.w3.org/1999/xlink" x="0px" y="0px"
	 viewBox="0 0 190 100" enable-background="new 0 0 190 100" xml:space="preserve">
<g>
	<polygon points="122.3,38.6 122.3,47.7 127.9,47.7 127.9,52.1 122.3,52.1 122.3,65.8 117.4,65.8 117.4,34 129,34 129,38.6 	"/>
	<polygon points="106.1,54.9 106.1,65.8 101.2,65.8 101.2,54.9 95.3,34 100.2,34 103.6,47.8 107.1,34 112,34 	"/>
	<polygon points="89.6,38.6 89.6,65.8 84.7,65.8 84.7,38.6 80.5,38.6 80.5,34 93.8,34 93.8,38.6 	"/>
	<rect x="73.2" y="34" width="4.9" height="31.8"/>
	<polygon points="58.8,49.3 58.8,65.8 53.9,65.8 53.9,33.6 65.6,50.6 65.6,34 70.4,34 70.4,66.3 	"/>
	<polygon points="31.5,66.4 22.5,34 27.6,34 31.5,50.8 35.5,34 40.6,34 	"/>
	<g>
		<path d="M157.5,38.5h-0.1v10.4h0.1c1.5,0,3.7-1.6,3.7-5.2C161.2,40.6,159.9,38.5,157.5,38.5 M162.3,65.8l-4.8-13h-0.1v13h-4.9V34
			h4.5c5.6,0,9.2,4.3,9.2,9.2c0,4.7-2.3,7.3-4.1,8.5l5.4,14.1H162.3z"/>
		<path d="M135.3,49.2l-1.9,7.9h3.8L135.3,49.2z M139.4,65.8l-1.2-4.5h-5.9l-1.1,4.5h-4.8l8.9-32.3l8.9,32.3H139.4z"/>
		<path d="M43.7,49.2l-1.9,7.9h3.8L43.7,49.2z M47.8,65.8l-1.2-4.5h-5.9l-1.1,4.5h-4.8l8.9-32.3l8.9,32.3H47.8z"/>
		<rect x="145.5" y="34" width="4.9" height="31.8"/>
	</g>
</g>
</svg>
